<svg width="15" height="23" viewBox="0 0 15 23" fill="none" xmlns="http://www.w3.org/2000/svg">
<path d="M11.8263 19.4062V20.8439C11.8263 21.2411 11.5081 21.5625 11.1151 21.5625H10.4037C10.4037 22.3571 9.7676 23 8.98151 23H6.13685C5.35133 23 4.71443 22.3571 4.71443 21.5625H4.00334C3.61011 21.5625 3.29201 21.2411 3.29201 20.8439V19.4062C3.29201 19.0088 3.61011 18.6876 4.00334 18.6876H11.1151C11.5081 18.6876 11.8263 19.0088 11.8263 19.4062ZM14.6709 7.18746C14.6709 7.93722 14.5571 8.65863 14.3474 9.33814L11.7609 16.2435C11.5802 16.8275 11.0413 17.2498 10.4036 17.2498H4.71434C4.07815 17.2498 3.53778 16.8275 3.35575 16.2435L0.770801 9.33819C0.561193 8.65868 0.447266 7.93727 0.447266 7.18751C0.447313 3.21755 3.63093 0 7.55909 0C11.4872 0 14.6709 3.21755 14.6709 7.18746ZM8.27032 2.87498C8.27032 2.47775 7.95227 2.15632 7.55913 2.15632C4.81434 2.15632 2.58083 4.41364 2.58083 7.18751C2.58083 7.58474 2.89887 7.90641 3.29201 7.90641C3.68506 7.90641 4.00334 7.58474 4.00334 7.18751C4.00334 5.20545 5.59869 3.59387 7.55913 3.59387C7.95223 3.59383 8.27032 3.2722 8.27032 2.87498Z" fill="#333333"/>
</svg>
