<svg width="23" height="22" viewBox="0 0 23 22" fill="none" xmlns="http://www.w3.org/2000/svg">
<g clip-path="url(#clip0_69_303)">
<path d="M15.4398 9.104H7.67184C7.2311 9.104 6.87378 9.4557 6.87378 9.88952C6.87378 10.3233 7.2311 10.675 7.67184 10.675V11.1987C7.67184 11.6325 8.02916 11.9842 8.4699 11.9842C8.91064 11.9842 9.26796 11.6325 9.26796 11.1987V10.675H13.8435V11.1987C13.8435 11.6325 14.2009 11.9842 14.6416 11.9842C15.0823 11.9842 15.4397 11.6325 15.4397 11.1987V10.675C15.8804 10.675 16.2377 10.3233 16.2377 9.88952C16.2377 9.4557 15.8805 9.104 15.4398 9.104Z" fill="#333333"/>
<path d="M11.5558 5.43823C10.6743 5.43823 9.95972 6.14163 9.95972 7.00926H13.152C13.152 6.14163 12.4374 5.43823 11.5558 5.43823Z" fill="#333333"/>
<path d="M11.5558 0C5.38366 0 0.380127 4.92486 0.380127 11C0.380127 17.0751 5.38366 22 11.5558 22C17.728 22 22.7316 17.0751 22.7316 11C22.7316 4.92486 17.728 0 11.5558 0ZM18.3661 15.7024C18.3661 16.57 17.6514 17.2734 16.7699 17.2734H6.34176C5.46028 17.2734 4.74564 16.57 4.74564 15.7024V8.58034C4.74564 7.71268 5.46028 7.00932 6.34176 7.00932H8.36352C8.36356 5.27394 9.79279 3.86719 11.5558 3.86719C13.3189 3.86719 14.7481 5.27394 14.7481 7.00928H16.7699C17.6514 7.00928 18.366 7.71268 18.366 8.5803V15.7024H18.3661Z" fill="#333333"/>
</g>
<defs>
<clipPath id="clip0_69_303">
<rect width="22.3514" height="22" fill="white" transform="translate(0.380127)"/>
</clipPath>
</defs>
</svg>
