<svg width="223" height="41" viewBox="0 0 223 41" fill="none" xmlns="http://www.w3.org/2000/svg">
<rect width="105.917" height="41" rx="18.4591" fill="#FD890A"/>
<path fill-rule="evenodd" clip-rule="evenodd" d="M38.2469 20.5C38.2483 19.9926 38.1484 19.4901 37.9531 19.0213C37.7578 18.5526 37.471 18.1271 37.1092 17.7693C36.7494 17.4096 36.3215 17.1243 35.8501 16.9301C35.3788 16.7359 34.8734 16.6366 34.3632 16.6379H26.0556V24.3621H34.3632C34.8735 24.3634 35.379 24.2641 35.8504 24.0699C36.3218 23.8757 36.7499 23.5905 37.1097 23.2307C37.4714 22.873 37.7581 22.4475 37.9533 21.9789C38.1485 21.5102 38.2483 21.0078 38.2469 20.5005V20.5ZM42.0943 20.5C42.0943 24.7454 38.6328 28.1875 34.3632 28.1875H22.2083V12.8125H34.3632C38.6328 12.8125 42.0943 16.2541 42.0943 20.5ZM82.2968 19.998C81.8497 19.5524 81.3186 19.1991 80.7338 18.9582C80.149 18.7174 79.5222 18.5937 78.8892 18.5944V18.6005H68.6607C68.3979 18.6003 68.146 18.4963 67.9602 18.3116C67.7743 18.1268 67.6698 17.8762 67.6696 17.6149C67.6696 17.0716 68.1139 16.6292 68.6607 16.6292H80.7839C81.2917 16.6292 81.7787 16.4286 82.1378 16.0716C82.4969 15.7145 82.6986 15.2302 82.6986 14.7252C82.6986 14.2202 82.4969 13.7359 82.1378 13.3788C81.7787 13.0218 81.2917 12.8212 80.7839 12.8212H68.6607C68.0109 12.8212 67.3795 12.9486 66.7834 13.1988C66.211 13.4392 65.6909 13.7878 65.2521 14.2252C64.8122 14.6618 64.4617 15.1792 64.2199 15.7486C63.9684 16.3389 63.8392 16.9737 63.8402 17.6149C63.8402 18.2611 63.9683 18.889 64.2199 19.4812C64.4616 20.0507 64.8121 20.568 65.2521 21.0045C65.6992 21.4504 66.2305 21.804 66.8155 22.045C67.4004 22.2859 68.0276 22.4095 68.6607 22.4086H78.8892V22.4025C79.435 22.4025 79.8788 22.8439 79.8788 23.3861C79.8787 23.6471 79.7744 23.8974 79.5889 24.082C79.4033 24.2667 79.1517 24.3705 78.8892 24.3708H65.7549C65.2471 24.3708 64.76 24.5714 64.401 24.9284C64.0419 25.2855 63.8402 25.7698 63.8402 26.2748C63.8402 26.7798 64.0419 27.2641 64.401 27.6212C64.76 27.9782 65.2471 28.1788 65.7549 28.1788H78.8892C79.5222 28.1796 80.149 28.056 80.7338 27.8151C81.3186 27.5743 81.8498 27.2209 82.2968 26.7753C82.7365 26.3388 83.0869 25.8216 83.3285 25.2524C83.5802 24.6623 83.7093 24.0277 83.7082 23.3866C83.709 22.7572 83.5848 22.1338 83.3425 21.5523C83.1003 20.9707 82.7449 20.4425 82.2968 19.998ZM59.0447 12.8125H62.8741V26.2748C62.874 26.6514 62.7617 27.0195 62.5513 27.3326C62.3409 27.6457 62.0418 27.8897 61.6919 28.0337C61.342 28.1778 60.9571 28.2155 60.5857 28.142C60.2143 28.0685 59.8731 27.8871 59.6054 27.6208L46.8354 18.442V28.1875H43.0055V14.7252C43.0056 14.3486 43.1179 13.9805 43.3283 13.6674C43.5387 13.3543 43.8378 13.1103 44.1877 12.9663C44.5376 12.8222 44.9225 12.7845 45.2939 12.858C45.6653 12.9315 46.0065 13.1129 46.2742 13.3792L59.0442 22.558L59.0447 12.8125Z" fill="#F7F7F7"/>
<path d="M125.812 31.2708V21.5333C125.812 19.8865 125.657 18.7171 125.346 18.025C125.036 17.3328 124.392 16.9868 123.413 16.9868C122.602 16.9868 121.946 17.2135 121.444 17.667C120.943 18.0966 120.561 18.6574 120.299 19.3495V31.2708H115.645V13.371H119.261L119.798 15.7338H119.941C120.49 14.9701 121.182 14.3018 122.017 13.729C122.876 13.1563 123.974 12.8699 125.311 12.8699C126.456 12.8699 127.387 13.1085 128.103 13.5858C128.843 14.0393 129.416 14.815 129.821 15.9128C130.37 14.982 131.074 14.2422 131.934 13.6932C132.793 13.1443 133.831 12.8699 135.048 12.8699C136.05 12.8699 136.898 12.9892 137.59 13.2279C138.306 13.4665 138.879 13.8842 139.308 14.4808C139.762 15.0536 140.096 15.8293 140.311 16.8078C140.525 17.7863 140.633 19.0274 140.633 20.5309V31.2708H135.979V21.2111C135.979 19.803 135.824 18.7529 135.513 18.0608C135.227 17.3448 134.571 16.9868 133.545 16.9868C132.709 16.9868 132.041 17.2135 131.54 17.667C131.062 18.1204 130.704 18.741 130.466 19.5285V31.2708H125.812ZM158.414 29.7314C157.698 30.3042 156.719 30.7934 155.478 31.1992C154.261 31.581 152.96 31.7719 151.576 31.7719C148.688 31.7719 146.576 30.9366 145.24 29.266C143.903 27.5715 143.235 25.2565 143.235 22.3209C143.235 19.1706 143.987 16.8078 145.49 15.2326C146.994 13.6574 149.106 12.8699 151.827 12.8699C152.734 12.8699 153.617 12.9892 154.476 13.2279C155.335 13.4665 156.099 13.8603 156.767 14.4092C157.435 14.9582 157.972 15.698 158.378 16.6288C158.784 17.5596 158.987 18.7171 158.987 20.1013C158.987 20.6025 158.951 21.1395 158.879 21.7123C158.832 22.2851 158.748 22.8818 158.629 23.5023H147.889C147.96 25.0059 148.342 26.1395 149.034 26.9032C149.75 27.6669 150.896 28.0488 152.471 28.0488C153.45 28.0488 154.321 27.9056 155.085 27.6192C155.872 27.309 156.469 26.9987 156.875 26.6884L158.414 29.7314ZM151.755 16.593C150.538 16.593 149.631 16.9629 149.034 17.7028C148.462 18.4188 148.116 19.3853 147.996 20.6025H154.655C154.75 19.3137 154.548 18.3233 154.046 17.6312C153.569 16.9391 152.805 16.593 151.755 16.593ZM172.87 31.2708V21.1037C172.87 19.6479 172.655 18.5978 172.226 17.9534C171.82 17.309 171.116 16.9868 170.114 16.9868C169.231 16.9868 168.479 17.2493 167.858 17.7744C167.262 18.2756 166.832 18.908 166.569 19.6717V31.2708H161.916V13.371H165.603L166.14 15.7338H166.283C166.832 14.9701 167.56 14.3018 168.467 13.729C169.374 13.1563 170.543 12.8699 171.975 12.8699C172.858 12.8699 173.646 12.9892 174.338 13.2279C175.03 13.4665 175.615 13.8603 176.092 14.4092C176.569 14.9582 176.927 15.7099 177.166 16.6646C177.405 17.5954 177.524 18.7529 177.524 20.1371V31.2708H172.87ZM179.204 13.371H181.674V10.0059L186.328 8.68132V13.371H190.695V17.309H186.328V24.1825C186.328 25.4235 186.447 26.3185 186.686 26.8674C186.948 27.3925 187.426 27.655 188.118 27.655C188.595 27.655 189.001 27.6073 189.335 27.5118C189.693 27.4163 190.087 27.2732 190.516 27.0822L191.34 30.6622C190.695 30.9724 189.944 31.235 189.085 31.4497C188.225 31.6645 187.354 31.7719 186.471 31.7719C184.824 31.7719 183.607 31.3543 182.82 30.519C182.056 29.6598 181.674 28.2636 181.674 26.3304V17.309H179.204V13.371ZM192.154 22.3209C192.154 19.2899 192.894 16.9629 194.374 15.34C195.854 13.6932 197.93 12.8699 200.603 12.8699C202.035 12.8699 203.276 13.0966 204.326 13.55C205.376 14.0035 206.247 14.6479 206.939 15.4832C207.632 16.2947 208.145 17.2851 208.479 18.4546C208.837 19.624 209.016 20.9128 209.016 22.3209C209.016 25.3519 208.276 27.6908 206.796 29.3376C205.34 30.9605 203.276 31.7719 200.603 31.7719C199.171 31.7719 197.93 31.5452 196.88 31.0918C195.83 30.6383 194.947 30.0058 194.231 29.1944C193.539 28.3591 193.013 27.3567 192.655 26.1872C192.321 25.0178 192.154 23.729 192.154 22.3209ZM196.951 22.3209C196.951 23.1085 197.023 23.8364 197.166 24.5047C197.309 25.1729 197.524 25.7576 197.811 26.2588C198.097 26.76 198.467 27.1538 198.92 27.4402C199.398 27.7027 199.959 27.834 200.603 27.834C201.82 27.834 202.727 27.3925 203.324 26.5094C203.92 25.6264 204.219 24.2302 204.219 22.3209C204.219 20.6741 203.944 19.3495 203.395 18.3472C202.846 17.3209 201.916 16.8078 200.603 16.8078C199.457 16.8078 198.562 17.2374 197.918 18.0966C197.274 18.9558 196.951 20.3639 196.951 22.3209ZM221.764 17.7386C221.024 17.476 220.356 17.3448 219.76 17.3448C218.924 17.3448 218.22 17.5715 217.647 18.025C217.098 18.4546 216.729 19.0154 216.538 19.7075V31.2708H211.884V13.371H215.499L216.036 15.7338H216.18C216.585 14.8508 217.134 14.1706 217.826 13.6932C218.519 13.2159 219.33 12.9773 220.261 12.9773C220.881 12.9773 221.585 13.1085 222.373 13.371L221.764 17.7386Z" fill="#333333"/>
</svg>
