<svg width="293" height="197" viewBox="0 0 293 197" fill="none" xmlns="http://www.w3.org/2000/svg">
<path d="M270.083 192.917H17.2764C12.6079 192.917 8.82666 189.136 8.82666 184.468V23.0127C8.82666 18.3442 12.6079 14.563 17.2764 14.563H270.083C274.752 14.563 278.533 18.3442 278.533 23.0127V184.468C278.533 189.13 274.752 192.917 270.083 192.917Z" fill="#455A64"/>
<path d="M281.879 197H10.3229C4.62211 197 0 192.378 0 186.677V181.394H292.202V186.677C292.202 192.384 287.58 197 281.879 197Z" fill="#455A64"/>
<path d="M117.095 179.724L120.72 185.494H171.743L175.107 179.724H117.095Z" fill="#263238"/>
<path d="M276.213 179.724C276.213 179.822 216.352 179.898 142.526 179.898C68.6763 179.898 8.82666 179.822 8.82666 179.724C8.82666 179.625 68.6763 179.55 142.526 179.55C216.352 179.55 276.213 179.625 276.213 179.724Z" fill="#263238"/>
<path d="M267.856 175.009H18.4535C17.4038 175.009 16.5571 174.156 16.5571 173.112V26.7184C16.5571 25.6687 17.4096 24.822 18.4535 24.822H267.862C268.912 24.822 269.758 25.6745 269.758 26.7184V173.112C269.753 174.156 268.906 175.009 267.856 175.009Z" fill="#EBEBEB"/>
<path d="M269.486 175.229H16.2788L16.5514 36.0439H269.486V175.229Z" fill="white"/>
<path d="M37.319 30.6214C37.319 31.7407 36.4143 32.6454 35.295 32.6454C34.1757 32.6454 33.271 31.7407 33.271 30.6214C33.271 29.5021 34.1757 28.5974 35.295 28.5974C36.4143 28.5974 37.319 29.5021 37.319 30.6214Z" fill="#263238"/>
<path d="M25.0648 30.6214C25.0648 31.7407 24.1601 32.6454 23.0408 32.6454C21.9216 32.6454 21.0168 31.7407 21.0168 30.6214C21.0168 29.5021 21.9216 28.5974 23.0408 28.5974C24.1601 28.5974 25.0648 29.5021 25.0648 30.6214Z" fill="#263238"/>
<path d="M30.9454 30.6214C30.9454 31.7407 30.0407 32.6454 28.9214 32.6454C27.8022 32.6454 26.8975 31.7407 26.8975 30.6214C26.8975 29.5021 27.8022 28.5974 28.9214 28.5974C30.0407 28.5974 30.9454 29.5021 30.9454 30.6214Z" fill="#263238"/>
<path d="M269.753 161.786H16.2788V175.229H269.753V161.786Z" fill="#263238"/>
<path d="M25.8594 170.062V170.491H23.8412V170.149L24.9315 169.117C25.1983 168.861 25.2447 168.705 25.2447 168.548C25.2447 168.299 25.0707 168.154 24.7343 168.154C24.4675 168.154 24.2472 168.247 24.0906 168.438L23.7368 168.165C23.9456 167.881 24.3284 167.713 24.7749 167.713C25.3722 167.713 25.755 168.015 25.755 168.502C25.755 168.769 25.6796 169.012 25.3026 169.366L24.5719 170.062H25.8594Z" fill="white"/>
<path d="M26.1321 168.705C26.1321 168.508 26.2771 168.38 26.451 168.38C26.625 168.38 26.77 168.508 26.77 168.705C26.77 168.89 26.625 169.03 26.451 169.03C26.2771 169.03 26.1321 168.896 26.1321 168.705ZM26.1321 170.195C26.1321 169.998 26.2771 169.871 26.451 169.871C26.625 169.871 26.77 169.998 26.77 170.195C26.77 170.381 26.625 170.52 26.451 170.52C26.2771 170.52 26.1321 170.387 26.1321 170.195Z" fill="white"/>
<path d="M28.0459 167.754V170.491H27.5355V168.177H26.9556V167.748H28.0459V167.754Z" fill="white"/>
<path d="M31.0324 169.871H30.5453V170.491H30.0523V169.871H28.5503V169.517L29.9016 167.754H30.4467L29.1766 169.442H30.0755V168.891H30.5511V169.442H31.0382V169.871H31.0324Z" fill="white"/>
<path d="M243.261 168.774H35.5037V169.719H243.261V168.774Z" fill="white"/>
<path d="M100.271 167.76H35.3472V170.288H100.271V167.76Z" fill="#FF725E"/>
<path d="M102.371 169.25C102.371 170.995 100.956 172.41 99.21 172.41C97.4644 172.41 96.0493 170.995 96.0493 169.25C96.0493 167.504 97.4644 166.089 99.21 166.089C100.956 166.089 102.371 167.504 102.371 169.25Z" fill="#FF725E"/>
<path d="M248.492 169.221C248.492 169.766 248.051 170.108 247.489 170.108C246.741 170.108 246.306 169.627 246.306 168.745C246.306 167.806 246.851 167.29 247.645 167.29C247.918 167.29 248.179 167.348 248.364 167.464L248.179 167.847C248.028 167.748 247.848 167.713 247.657 167.713C247.141 167.713 246.816 168.032 246.816 168.658V168.664C246.978 168.473 247.245 168.38 247.547 168.38C248.092 168.38 248.492 168.711 248.492 169.221ZM247.999 169.244C247.999 168.96 247.784 168.78 247.454 168.78C247.123 168.78 246.897 168.977 246.897 169.25C246.897 169.505 247.1 169.714 247.466 169.714C247.785 169.708 247.999 169.528 247.999 169.244Z" fill="white"/>
<path d="M248.741 168.281C248.741 168.084 248.886 167.957 249.06 167.957C249.234 167.957 249.379 168.084 249.379 168.281C249.379 168.467 249.234 168.606 249.06 168.606C248.886 168.606 248.741 168.467 248.741 168.281ZM248.741 169.772C248.741 169.575 248.886 169.447 249.06 169.447C249.234 169.447 249.379 169.575 249.379 169.772C249.379 169.957 249.234 170.097 249.06 170.097C248.886 170.097 248.741 169.957 248.741 169.772Z" fill="white"/>
<path d="M249.71 168.699C249.71 167.8 250.203 167.29 250.852 167.29C251.508 167.29 252.001 167.8 252.001 168.699C252.001 169.598 251.508 170.108 250.852 170.108C250.203 170.108 249.71 169.598 249.71 168.699ZM251.485 168.699C251.485 168.038 251.229 167.731 250.852 167.731C250.481 167.731 250.22 168.038 250.22 168.699C250.22 169.36 250.481 169.668 250.852 169.668C251.229 169.668 251.485 169.36 251.485 168.699Z" fill="white"/>
<path d="M252.337 168.699C252.337 167.8 252.83 167.29 253.479 167.29C254.135 167.29 254.628 167.8 254.628 168.699C254.628 169.598 254.135 170.108 253.479 170.108C252.83 170.108 252.337 169.598 252.337 168.699ZM254.117 168.699C254.117 168.038 253.862 167.731 253.485 167.731C253.114 167.731 252.853 168.038 252.853 168.699C252.853 169.36 253.114 169.668 253.485 169.668C253.856 169.668 254.117 169.36 254.117 168.699Z" fill="white"/>
<path d="M259.053 168.531H258.107V165.799H260.827V166.745H259.053V168.531Z" fill="white"/>
<path d="M260.833 172.091H258.102V169.372H259.047V171.146H260.833V172.091Z" fill="white"/>
<path d="M265.183 172.092H262.457V171.146H264.232V169.36H265.183V172.092Z" fill="white"/>
<path d="M265.183 168.525H264.237V166.745H262.451V165.799H265.183V168.525Z" fill="white"/>
<path d="M51.0055 44.3196H36.0779L28.6199 57.2406L36.0779 70.1674H51.0055L58.4635 57.2406L51.0055 44.3196Z" fill="#EBEBEB"/>
<path d="M37.2957 59.775C36.6288 59.0385 35.956 58.2904 35.4689 57.4205C34.9817 56.5506 34.6918 55.5415 34.8542 54.5556C34.9469 53.9815 35.1905 53.4363 35.2311 52.8564C35.2833 52.0561 34.947 51.221 35.2311 50.4728C35.6719 49.3014 37.2493 49.1216 38.2062 48.3155C38.9485 47.6833 39.3139 46.6626 40.1316 46.1349C40.8449 45.6709 41.767 45.6825 42.6079 45.8043C43.4489 45.9261 44.3014 46.1349 45.1423 46.0247C45.7454 45.9435 46.3079 45.6999 46.8995 45.555C47.491 45.41 48.1464 45.3694 48.6683 45.6767C49.1902 45.9841 49.486 46.7264 49.1438 47.2252C50.1239 46.7728 51.365 47.5383 51.6318 48.5764C51.8986 49.6203 51.365 50.7454 50.5357 51.4355C49.7064 52.1257 48.6335 52.4446 47.578 52.6418C44.5855 53.2043 41.3321 52.8854 38.7513 51.2673" fill="#263238"/>
<path d="M51.133 62.9645C51.0344 61.1145 50.5125 57.3217 50.0079 53.8943C49.4628 50.2058 46.1745 47.5613 42.4571 47.8107L42.086 47.8339C38.1192 48.3326 36.3272 51.9805 36.9361 55.9356L38.1018 70.1731H47.7868C47.7868 70.1731 47.5606 67.6736 47.5548 67.6504C47.5548 67.6446 51.3418 66.7921 51.133 62.9645Z" fill="#FFBE9D"/>
<path d="M47.5548 67.5925C47.5548 67.5925 45.1481 67.9521 42.4688 66.5081C42.4688 66.5081 43.8316 69.1816 47.6302 68.5842L47.5548 67.5925Z" fill="#EB996E"/>
<path d="M48.7728 57.1769C48.8018 57.4668 48.5814 57.7278 48.2798 57.7626C47.9783 57.7974 47.7115 57.5944 47.6825 57.3045C47.6535 57.0145 47.8739 56.7535 48.1696 56.7187C48.477 56.6839 48.7438 56.8869 48.7728 57.1769Z" fill="#263238"/>
<path d="M49.3121 55.8198C49.2483 55.8952 48.8133 55.6168 48.2276 55.6574C47.6419 55.6922 47.2301 56.0228 47.1605 55.9532C47.1257 55.9242 47.1895 55.7908 47.3635 55.64C47.5375 55.4892 47.8448 55.3384 48.2102 55.3152C48.5756 55.292 48.8945 55.408 49.0801 55.5356C49.2715 55.6574 49.3411 55.785 49.3121 55.8198Z" fill="#263238"/>
<path d="M43.2169 57.577C43.2459 57.867 43.0255 58.128 42.7239 58.1628C42.4224 58.1976 42.1556 57.9946 42.1266 57.7046C42.0976 57.4146 42.318 57.1537 42.6137 57.1189C42.9211 57.0841 43.1879 57.2871 43.2169 57.577Z" fill="#263238"/>
<path d="M43.5359 56.3186C43.4721 56.394 43.0372 56.1156 42.4514 56.1562C41.8657 56.191 41.454 56.5215 41.3844 56.4519C41.3496 56.423 41.4134 56.2896 41.5931 56.1388C41.7671 55.988 42.0745 55.8372 42.4398 55.814C42.8052 55.7908 43.1242 55.9068 43.3098 56.0344C43.4953 56.1562 43.5649 56.2838 43.5359 56.3186Z" fill="#263238"/>
<path d="M45.9601 60.5347C45.9543 60.4999 46.3139 60.4129 46.9054 60.2969C47.0562 60.2737 47.1954 60.2331 47.2128 60.1287C47.2418 60.0186 47.1664 59.862 47.0852 59.688C46.917 59.3342 46.7488 58.9631 46.5633 58.5745C45.8383 56.9855 45.299 55.6806 45.3628 55.6516C45.4266 55.6226 46.0703 56.8869 46.7952 58.4759C46.9692 58.8703 47.1374 59.2414 47.2998 59.601C47.3694 59.7692 47.4796 59.9548 47.4158 60.1867C47.381 60.3027 47.2766 60.3897 47.1838 60.4245C47.091 60.4593 47.004 60.4651 46.9286 60.4767C46.3371 60.5405 45.9659 60.5695 45.9601 60.5347Z" fill="#263238"/>
<path d="M43.5301 53.9986C43.4837 54.161 42.8921 54.1262 42.2078 54.2537C41.5177 54.3697 40.9783 54.6075 40.874 54.4741C40.8276 54.4103 40.9145 54.2537 41.1291 54.0798C41.3437 53.9116 41.6859 53.7376 42.0976 53.668C42.5094 53.5926 42.8921 53.6332 43.1531 53.7202C43.4141 53.8072 43.5533 53.9232 43.5301 53.9986Z" fill="#263238"/>
<path d="M48.9816 54.1322C48.8888 54.2714 48.4712 54.1612 47.9841 54.1844C47.4969 54.196 47.091 54.3352 46.9866 54.2018C46.9402 54.138 46.9982 53.9988 47.1664 53.8596C47.3346 53.7205 47.6245 53.5987 47.9609 53.5871C48.2973 53.5755 48.593 53.6799 48.7728 53.8016C48.9526 53.9292 49.0222 54.0626 48.9816 54.1322Z" fill="#263238"/>
<path d="M37.4407 58.7427C37.3711 58.7195 34.7556 58.1396 35.0166 60.7551C35.2776 63.3648 38.1077 62.5181 38.1019 62.4427C38.1019 62.3616 37.4407 58.7427 37.4407 58.7427Z" fill="#FFBE9D"/>
<path d="M36.942 61.5843C36.9304 61.5785 36.9014 61.6191 36.826 61.6655C36.7564 61.7061 36.6288 61.7408 36.4838 61.706C36.1997 61.6307 35.9213 61.2189 35.8633 60.7492C35.8343 60.5114 35.8633 60.2794 35.9271 60.088C35.9851 59.8908 36.1011 59.7459 36.2345 59.7053C36.3679 59.6589 36.478 59.7343 36.5128 59.8039C36.5534 59.8734 36.5418 59.9256 36.5592 59.9314C36.565 59.9372 36.6114 59.885 36.5766 59.7749C36.5592 59.7227 36.5244 59.6647 36.4549 59.6241C36.3853 59.5777 36.2925 59.5603 36.1939 59.5835C35.9967 59.6183 35.8285 59.8212 35.7589 60.0358C35.6777 60.2504 35.6371 60.5114 35.6719 60.7782C35.7415 61.3001 36.0605 61.7698 36.4491 61.8394C36.6346 61.8684 36.7854 61.7988 36.8608 61.7293C36.9478 61.6481 36.9536 61.5843 36.942 61.5843Z" fill="#EB996E"/>
<path d="M49.8167 50.316C49.6369 51.3541 47.5318 52.3052 45.7803 52.2588C44.1681 52.2125 43.3736 51.4121 42.2021 50.8438C41.4598 50.4842 41.4598 50.4842 40.4565 50.6466C39.6446 50.78 39.2212 51.7369 38.7631 52.4212C39.633 54.3176 39.2792 56.5214 38.9139 58.5744C38.8733 58.8006 38.8211 59.0441 38.6471 59.2007C38.3513 59.4617 37.8758 59.3051 37.5916 59.0383C37.1277 58.615 36.9189 57.9886 36.7681 57.3797C36.4201 55.9937 36.2926 54.5438 36.5071 53.1346C36.7275 51.7253 37.3075 50.3508 38.2759 49.3012C39.4822 47.9847 41.2394 47.225 43.0256 47.1322C44.8061 47.0394 46.5981 47.5903 48.0885 48.5704C48.7728 49.0286 49.4224 49.5853 49.8167 50.316Z" fill="#263238"/>
<path d="M46.3486 61.8571C45.902 61.6483 45.4613 61.4453 45.0147 61.2365C44.9393 61.2018 44.8581 61.167 44.7711 61.1728C44.6784 61.1844 44.603 61.254 44.5392 61.3293C44.2318 61.7005 44.1506 62.2688 44.3942 62.6922C44.632 63.1155 45.1945 63.3359 45.6411 63.1503C46.1108 62.9532 46.3428 62.408 46.3776 61.8977L46.3486 61.8571Z" fill="#EB996E"/>
<path d="M45.6875 63.2488C45.7107 63.272 45.4091 63.4634 44.9045 63.3184C44.661 63.243 44.3826 63.0574 44.2144 62.7559C44.0404 62.4601 43.9766 62.0425 44.1274 61.6656C44.197 61.48 44.313 61.3118 44.4522 61.1842C44.5218 61.1204 44.5914 61.0624 44.6784 61.016C44.7654 60.9522 44.9451 60.9464 45.0263 60.9928C45.3279 61.161 45.5367 61.306 45.7397 61.4394C46.1282 61.7004 46.3602 61.8743 46.337 61.9149C46.3138 61.9497 46.047 61.8396 45.6295 61.625C45.3859 61.4974 45.1539 61.3756 44.9161 61.2538C44.8581 61.2364 44.8639 61.2364 44.8117 61.2654C44.7596 61.3002 44.6958 61.3466 44.6494 61.3988C44.545 61.5032 44.458 61.6308 44.4058 61.7758C44.2898 62.0657 44.3304 62.3847 44.458 62.6283C44.5856 62.8718 44.7828 63.0342 44.9799 63.1212C45.3801 63.2894 45.6759 63.1966 45.6875 63.2488Z" fill="#263238"/>
<path d="M45.2641 57.2405C45.2351 57.2405 45.2409 56.9969 45.1191 56.591C45.0032 56.1908 44.7248 55.6051 44.1217 55.1585C43.5359 54.712 42.579 54.4626 41.6569 54.8105C40.7406 55.1295 39.9519 56.1038 39.9635 57.2405C39.9519 58.3772 40.7406 59.3515 41.6569 59.6704C42.579 60.0184 43.5359 59.769 44.1217 59.3225C44.7248 58.8759 45.009 58.2902 45.1191 57.89C45.2409 57.4841 45.2351 57.2405 45.2641 57.2405C45.2757 57.2405 45.2815 57.2985 45.2873 57.4145C45.2931 57.5305 45.2815 57.7044 45.2351 57.919C45.1481 58.3482 44.8872 58.9861 44.2492 59.4907C43.6345 59.9952 42.5848 60.2968 41.5583 59.9314C40.5376 59.595 39.6445 58.5106 39.6561 57.2405C39.6445 55.9704 40.5376 54.8859 41.5583 54.5496C42.5906 54.1784 43.6345 54.48 44.2492 54.9903C44.8872 55.4949 45.1481 56.1386 45.2351 56.562C45.2815 56.7765 45.2931 56.9505 45.2873 57.0665C45.2815 57.1825 45.2757 57.2405 45.2641 57.2405Z" fill="#263238"/>
<path d="M51.7769 56.9855C51.7479 56.9855 51.7479 56.7478 51.6377 56.3534C51.5275 55.9648 51.2549 55.3965 50.6634 54.9615C50.095 54.5266 49.1613 54.2888 48.2624 54.6252C47.3693 54.9325 46.6038 55.8836 46.6154 56.9913C46.6038 58.099 47.3751 59.0443 48.2624 59.3575C49.1613 59.6938 50.095 59.4561 50.6634 59.0211C51.2549 58.5862 51.5275 58.0178 51.6377 57.6293C51.7537 57.2233 51.7479 56.9855 51.7769 56.9855C51.7885 56.9855 51.7943 57.0435 51.8 57.1595C51.8058 57.2697 51.7942 57.4379 51.7537 57.6525C51.6725 58.07 51.4173 58.6905 50.7968 59.1893C50.1994 59.6822 49.1787 59.978 48.1696 59.6184C47.1721 59.2879 46.3022 58.2324 46.3138 56.9913C46.3022 55.7503 47.1721 54.6948 48.1696 54.3642C49.1729 54.0046 50.1936 54.3004 50.7968 54.7934C51.4173 55.2863 51.6725 55.9126 51.7537 56.3302C51.8 56.539 51.8058 56.7072 51.8 56.8231C51.7943 56.9275 51.7885 56.9855 51.7769 56.9855Z" fill="#263238"/>
<path d="M46.4645 56.3882C46.4065 56.4462 46.1456 56.278 45.7976 56.2896C45.4496 56.2896 45.2003 56.4694 45.1365 56.4114C45.0553 56.3708 45.2988 55.9938 45.7918 55.9822C46.2847 55.9764 46.5399 56.3418 46.4645 56.3882Z" fill="#263238"/>
<path d="M39.975 56.8579C40.0272 56.9275 39.5168 57.3856 38.8441 57.8901C38.1714 58.3947 37.5799 58.7485 37.5335 58.6789C37.4813 58.6093 37.9916 58.1511 38.6643 57.6466C39.3371 57.142 39.9228 56.7883 39.975 56.8579Z" fill="#263238"/>
<path d="M93.805 57.1129C93.805 57.1941 87.0951 57.2637 78.8194 57.2637C70.5436 57.2637 63.8337 57.1941 63.8337 57.1129C63.8337 57.0317 70.5436 56.9622 78.8194 56.9622C87.0951 56.9622 93.805 57.0259 93.805 57.1129Z" fill="#263238"/>
<path d="M79.9445 60.2505C79.9445 60.3317 76.3837 60.4013 71.9878 60.4013C67.5918 60.4013 64.031 60.3317 64.031 60.2505C64.031 60.1693 67.5918 60.0997 71.9878 60.0997C76.3837 60.0939 79.9445 60.1635 79.9445 60.2505Z" fill="#263238"/>
<path d="M183.58 80.2815C183.58 80.2815 191.542 84.1613 194.343 94.1826C197.145 104.204 205.704 130.301 205.704 130.301C205.704 130.301 210.599 136.06 211.127 140.323C211.649 144.585 210.605 154.902 209.027 156.828C207.456 158.753 205.211 158.434 205.211 158.434L184.606 156.48L176.493 102.151L183.58 80.2815Z" fill="#FF725E"/>
<path d="M115.449 79.3362C115.449 79.3362 100.718 83.9583 97.0471 87.9773L109.11 144.098L108.918 161.803H178.766C178.766 160.928 179.393 103.015 179.393 103.015L183.591 80.2873L158.764 75.9146L153.87 72.0696L126.247 73.4672L122.048 77.666L115.449 79.3362Z" fill="#FF725E"/>
<g opacity="0.3">
<path d="M121.045 128.022C120.83 127.547 120.523 127.03 120.013 126.926C119.172 126.752 118.609 127.749 118.325 128.556C116.058 134.981 113.053 140.891 109.15 146.47L108.971 155.088C113.042 151.66 117.055 147.989 119.653 143.344C122.24 138.699 123.237 132.87 121.045 128.022Z" fill="black"/>
</g>
<path d="M97.0413 87.9771C97.0413 87.9771 92.1872 94.5942 90.169 98.9147C88.1508 103.235 71.4486 139.516 70.4453 143.263C69.4362 147.009 66.8439 158.811 74.4758 161.548H90.169L105.92 129.692L106.726 92.721L97.0413 87.9771Z" fill="#FF725E"/>
<path d="M91.178 138.536C91.1548 138.559 90.83 138.229 90.1051 137.817C89.386 137.411 88.2609 136.941 86.8111 136.622C86.0861 136.466 85.28 136.338 84.4101 136.286C83.5402 136.234 82.6065 136.245 81.6554 136.466C79.7532 136.889 77.8626 138.095 76.3722 139.783C74.8585 141.471 73.9306 143.466 73.3797 145.345C72.823 147.23 72.5852 148.998 72.4344 150.477C72.2894 151.962 72.2314 153.168 72.1792 154.003C72.156 154.392 72.1328 154.711 72.1212 154.966C72.1038 155.186 72.0922 155.302 72.0806 155.302C72.069 155.302 72.0632 155.186 72.0632 154.966C72.0632 154.711 72.0632 154.392 72.069 154.003C72.0864 153.168 72.1096 151.956 72.2256 150.46C72.3474 148.969 72.5678 147.183 73.1129 145.264C73.6523 143.356 74.5976 141.308 76.146 139.58C77.6712 137.852 79.6198 136.617 81.5974 136.193C82.5833 135.973 83.546 135.967 84.4275 136.037C85.309 136.101 86.1267 136.24 86.8575 136.414C88.3247 136.762 89.4498 137.266 90.1631 137.713C90.5169 137.939 90.7778 138.142 90.9402 138.293C91.1026 138.443 91.1838 138.53 91.178 138.536Z" fill="#263238"/>
<path d="M83.7375 132.192C83.7375 132.169 83.9231 132.14 84.2653 132.105C84.6075 132.064 85.1062 132.053 85.7209 132.087C86.3357 132.116 87.0664 132.221 87.8609 132.406C88.6496 132.604 89.5079 132.894 90.3604 133.294C91.2071 133.706 91.9727 134.187 92.6222 134.68C93.2659 135.184 93.8053 135.683 94.217 136.147C94.6288 136.605 94.9362 137 95.1159 137.29C95.3015 137.58 95.4001 137.742 95.3827 137.753C95.3363 137.788 94.913 137.156 94.0604 136.292C93.6371 135.857 93.092 135.382 92.454 134.906C91.8045 134.436 91.0564 133.972 90.2271 133.572C89.392 133.178 88.5626 132.894 87.7913 132.685C87.0142 132.488 86.3067 132.366 85.7035 132.314C84.4973 132.186 83.7375 132.25 83.7375 132.192Z" fill="#263238"/>
<path d="M97.9229 130.446C97.9171 130.469 97.6619 130.446 97.1979 130.388C96.734 130.33 96.0613 130.261 95.232 130.197C93.5733 130.069 91.2652 130.04 88.7366 130.342C86.2139 130.649 83.9753 131.223 82.3921 131.734C81.5976 131.989 80.9597 132.215 80.5247 132.383C80.0898 132.546 79.8404 132.627 79.8346 132.609C79.8288 132.592 80.055 132.47 80.4841 132.273C80.9075 132.07 81.5338 131.815 82.3283 131.531C83.9058 130.962 86.1559 130.348 88.7077 130.04C91.2536 129.739 93.5907 129.803 95.2551 129.982C96.0903 130.069 96.763 130.174 97.2211 130.266C97.6793 130.371 97.9287 130.429 97.9229 130.446Z" fill="#263238"/>
<path d="M142.63 99.4484C142.624 99.4542 142.572 99.3904 142.468 99.257C142.358 99.1062 142.213 98.9149 142.039 98.6829C141.656 98.1493 141.122 97.4128 140.461 96.4965C139.104 94.5827 137.219 91.9208 134.993 88.7833L135.236 88.7485C134.389 91.2307 133.456 93.9738 132.476 96.8561L132.412 97.0359L132.255 96.9315C132.151 96.8677 132.041 96.7923 131.93 96.7227C130.631 95.8992 129.483 94.9075 128.515 93.8346C127.546 92.7559 126.74 91.6076 126.073 90.4594C124.739 88.157 123.933 85.8894 123.388 83.9698C122.843 82.0444 122.559 80.4438 122.373 79.3477C122.28 78.82 122.211 78.4024 122.153 78.0835C122.124 77.9385 122.095 77.8341 122.077 77.7587C122.048 77.6949 122.037 77.6543 122.042 77.6543C122.106 77.6253 122.274 78.2342 122.489 79.3303C122.715 80.4206 123.028 82.0097 123.597 83.9177C124.165 85.8198 124.983 88.0642 126.317 90.326C126.984 91.4569 127.778 92.5819 128.735 93.6432C129.698 94.6929 130.823 95.6672 132.093 96.4733C132.203 96.5429 132.313 96.6125 132.412 96.6763L132.191 96.7575C133.183 93.8752 134.123 91.1379 134.975 88.6616L135.062 88.4006L135.219 88.6268C137.405 91.7874 139.261 94.4725 140.595 96.4037C141.233 97.3374 141.737 98.0913 142.108 98.6365C142.271 98.8801 142.398 99.0772 142.503 99.2338C142.59 99.373 142.636 99.4426 142.63 99.4484Z" fill="#263238"/>
<g opacity="0.3">
<path d="M160.811 126.236C160.162 132.725 161.594 139.406 164.848 145.055C168.095 150.709 172.862 155.743 178.795 158.451C178.986 152.693 178.708 145.907 178.899 140.149L160.811 126.236Z" fill="black"/>
</g>
<path d="M160.156 118.656C160.156 118.656 157.622 119.358 159.524 124.56C161.426 129.756 162.058 129.443 163.328 134.308C164.598 139.168 166.077 143.611 168.298 146.36C170.52 149.108 178.766 154.711 178.766 154.711L186.166 147.734C186.166 147.734 184.948 142.532 185.238 139C185.528 135.468 186.271 126.798 186.166 125.319C186.062 123.84 184.473 120.245 184.473 120.245V117.786L180.669 106.077C180.669 106.077 178.552 105.126 177.815 108.507L176.545 104.917C176.545 104.917 174.539 104.598 174.011 108.721C173.483 112.845 174.434 118.551 174.434 118.551L173.379 125.743L171.795 130.603L170.421 130.811C170.421 130.811 168.351 130.249 167.22 126.352C166.077 122.46 163.009 117.809 160.156 118.656Z" fill="#FFBE9D"/>
<path d="M183.684 137.04C183.678 137.04 183.667 136.947 183.649 136.773C183.638 136.57 183.62 136.315 183.597 135.996C183.557 135.289 183.504 134.308 183.441 133.085C183.325 130.562 183.168 127.048 182.983 122.947L183.017 123.034C182.675 122.629 182.072 122.507 181.521 122.646C180.959 122.779 180.46 123.127 180.147 123.649C179.503 124.687 179.462 126.044 179.265 127.355C178.865 130.319 178.482 133.137 178.134 135.712C177.96 136.994 177.775 138.217 177.52 139.348C177.276 140.479 176.934 141.511 176.603 142.433C176.278 143.356 175.988 144.191 175.809 144.945C175.629 145.698 175.554 146.36 175.571 146.905C175.594 147.995 175.913 148.552 175.861 148.563C175.849 148.569 175.791 148.43 175.681 148.157C175.594 147.879 175.472 147.461 175.449 146.911C175.414 146.36 175.472 145.675 175.641 144.91C175.809 144.144 176.087 143.298 176.4 142.37C176.719 141.442 177.044 140.427 177.276 139.302C177.514 138.182 177.688 136.965 177.856 135.683C178.198 133.108 178.569 130.289 178.964 127.326C179.056 126.665 179.126 126.015 179.242 125.36C179.358 124.71 179.538 124.061 179.897 123.504C180.234 122.936 180.825 122.518 181.451 122.373C182.072 122.217 182.809 122.356 183.232 122.866L183.261 122.907V122.953C183.4 127.053 183.522 130.568 183.609 133.096C183.638 134.32 183.667 135.3 183.684 136.013C183.69 136.332 183.69 136.588 183.69 136.791C183.696 136.953 183.69 137.04 183.684 137.04Z" fill="#EB996E"/>
<path d="M179.636 123.719C179.619 123.725 179.503 123.493 179.323 123.058C179.149 122.623 178.917 121.979 178.703 121.161C178.488 120.349 178.285 119.358 178.169 118.25C178.111 117.693 178.07 117.102 178.14 116.487C178.204 115.872 178.384 115.223 178.778 114.672C179.114 114.196 179.59 113.813 180.129 113.657L180.245 113.622L180.303 113.726C181.376 115.617 182.304 117.287 182.959 118.488C183.261 119.05 183.51 119.52 183.719 119.909C183.893 120.245 183.98 120.431 183.963 120.442C183.945 120.454 183.829 120.28 183.626 119.961C183.4 119.59 183.122 119.132 182.791 118.586C182.089 117.409 181.127 115.762 180.042 113.877L180.216 113.947C179.752 114.086 179.329 114.417 179.027 114.852C178.674 115.35 178.5 115.942 178.436 116.522C178.372 117.108 178.401 117.682 178.447 118.227C178.546 119.323 178.72 120.303 178.911 121.115C179.097 121.927 179.294 122.576 179.433 123.023C179.578 123.464 179.659 123.713 179.636 123.719Z" fill="#EB996E"/>
<path d="M177.867 124.676C177.844 124.676 177.821 124.438 177.798 124.003C177.78 123.504 177.751 122.889 177.722 122.164C177.67 120.61 177.624 118.464 177.589 116.092C177.572 113.721 177.479 111.569 177.682 110.009C177.78 109.232 177.937 108.611 178.076 108.2C178.215 107.782 178.331 107.573 178.349 107.579C178.401 107.596 178.024 108.495 177.891 110.038C177.746 111.575 177.867 113.721 177.885 116.092C177.92 118.464 177.931 120.61 177.931 122.164C177.925 122.889 177.914 123.504 177.908 124.009C177.902 124.432 177.891 124.67 177.867 124.676Z" fill="#EB996E"/>
<path d="M171.61 144.167C171.569 144.133 172.027 143.587 172.602 142.596C172.892 142.103 173.187 141.488 173.46 140.792C173.721 140.085 173.959 139.29 174.121 138.438C174.272 137.579 174.324 136.756 174.324 136.002C174.312 135.248 174.249 134.569 174.15 134.013C173.959 132.888 173.715 132.215 173.767 132.197C173.785 132.192 173.86 132.354 173.976 132.656C174.098 132.957 174.231 133.41 174.359 133.972C174.486 134.54 174.573 135.231 174.602 135.996C174.62 136.767 174.568 137.614 174.417 138.49C174.254 139.365 174.005 140.177 173.721 140.891C173.425 141.598 173.1 142.219 172.781 142.706C172.468 143.193 172.184 143.57 171.964 143.808C171.755 144.051 171.627 144.179 171.61 144.167Z" fill="#EB996E"/>
<path d="M184.6 140.531L191.02 142.758C191.02 142.758 197.15 139.586 201.378 142.758C205.606 145.93 209.277 154.287 208.117 157.668C208.117 157.668 205.2 161.27 202.979 161.798C200.758 162.325 192.128 160.238 188.538 159.478C184.937 158.718 178.755 154.699 178.755 154.699L184.6 140.531Z" fill="#FFBE9D"/>
<path d="M185.389 149.99C185.366 149.99 185.343 149.787 185.32 149.422C185.296 148.987 185.262 148.471 185.227 147.873C185.157 146.563 185.07 144.753 185.041 142.747C185.012 140.74 185.07 138.925 185.192 137.614C185.25 136.959 185.32 136.431 185.383 136.066C185.447 135.701 185.494 135.503 185.517 135.509C185.563 135.515 185.465 136.321 185.401 137.626C185.337 138.931 185.314 140.74 185.343 142.741C185.378 144.701 185.412 146.476 185.436 147.868C185.441 148.523 185.441 149.057 185.43 149.422C185.43 149.787 185.412 149.99 185.389 149.99Z" fill="#EB996E"/>
<path d="M206.563 142.503C206.516 142.549 205.855 141.633 204.428 140.578C203.019 139.522 200.734 138.397 198.032 138.246C195.323 138.101 192.928 138.965 191.415 139.858C189.878 140.752 189.124 141.587 189.083 141.54C189.072 141.529 189.251 141.314 189.611 140.966C189.976 140.618 190.539 140.154 191.304 139.679C192.818 138.722 195.265 137.794 198.049 137.95C200.833 138.107 203.164 139.296 204.562 140.409C205.269 140.966 205.786 141.494 206.104 141.877C206.423 142.265 206.58 142.497 206.563 142.503Z" fill="#263238"/>
<path d="M205.739 137.15C205.699 137.214 204.84 136.344 203.066 135.677C201.32 134.993 198.612 134.68 195.834 135.463C194.448 135.851 193.178 136.402 192.093 137.017C191.009 137.637 190.104 138.316 189.385 138.931C188.666 139.545 188.115 140.085 187.738 140.456C187.361 140.833 187.152 141.036 187.135 141.024C187.123 141.013 187.303 140.781 187.657 140.375C188.011 139.975 188.538 139.412 189.252 138.768C189.959 138.125 190.864 137.417 191.96 136.773C193.056 136.135 194.343 135.561 195.758 135.167C198.606 134.367 201.384 134.726 203.147 135.474C204.04 135.84 204.701 136.263 205.124 136.588C205.345 136.744 205.49 136.895 205.594 136.988C205.693 137.092 205.745 137.144 205.739 137.15Z" fill="#263238"/>
<path d="M205.791 132.511C205.774 132.569 204.655 132.227 202.787 131.977C201.854 131.844 200.734 131.768 199.493 131.768C198.252 131.786 196.889 131.89 195.474 132.128C194.065 132.383 192.749 132.754 191.571 133.16C190.406 133.584 189.379 134.036 188.55 134.483C186.885 135.358 185.946 136.06 185.911 136.014C185.899 135.996 186.126 135.816 186.555 135.497C186.764 135.335 187.03 135.149 187.349 134.952C187.668 134.755 188.028 134.512 188.445 134.297C189.269 133.827 190.301 133.352 191.473 132.905C192.656 132.482 193.99 132.099 195.416 131.838C196.849 131.594 198.229 131.496 199.487 131.496C200.746 131.513 201.877 131.612 202.81 131.774C203.28 131.832 203.698 131.942 204.069 132.018C204.44 132.093 204.753 132.18 205.003 132.256C205.519 132.401 205.797 132.493 205.791 132.511Z" fill="#263238"/>
<path d="M156.595 75.7231C156.595 75.7231 156.891 76.2799 157.042 77.4282C157.198 78.5706 157.175 80.2873 156.798 82.4098C156.607 83.4711 156.352 84.6368 155.969 85.8837C155.569 87.1305 154.966 88.4064 154.281 89.7403C152.901 92.408 151.155 95.3135 149.143 98.4161L148.905 98.7815V98.3465C148.899 96.2994 148.9 94.1478 148.894 91.9092L149.12 92.0194C147.392 93.4113 145.576 94.8785 143.703 96.3922L143.75 96.3226C142.497 100.301 141.668 104.732 141.343 109.342C140.815 116.4 141.238 123.151 141.575 129.275C141.859 135.405 142.045 140.931 142.236 145.565C142.422 150.205 142.59 153.951 142.729 156.543C142.804 157.825 142.862 158.828 142.903 159.524C142.926 159.855 142.944 160.11 142.955 160.301C142.967 160.475 142.961 160.568 142.961 160.568C142.961 160.568 142.944 160.481 142.92 160.307C142.903 160.122 142.874 159.861 142.839 159.536C142.775 158.857 142.694 157.848 142.607 156.555C142.433 153.963 142.23 150.216 142.021 145.577C141.813 140.937 141.569 135.416 141.291 129.292C140.943 123.174 140.508 116.406 141.036 109.325C141.366 104.697 142.195 100.243 143.465 96.2414L143.477 96.2008L143.512 96.1718C145.385 94.6639 147.206 93.2025 148.934 91.8106L149.16 91.6309V91.9208C149.155 94.1536 149.155 96.3052 149.149 98.3582L148.911 98.2886C152.895 92.1122 156.137 86.742 156.636 82.3982C157.036 80.2931 157.082 78.5938 156.949 77.4514C156.891 76.8772 156.781 76.4539 156.711 76.1639C156.63 75.8681 156.595 75.7231 156.595 75.7231Z" fill="#263238"/>
<path d="M146.191 150.529L145.982 150.524C145.141 150.547 144.393 151.312 144.393 152.153C144.393 152.994 145.136 153.766 145.971 153.795C146.812 153.824 147.606 153.104 147.658 152.269C147.722 151.428 147.026 150.611 146.191 150.529Z" fill="white"/>
<path d="M146.191 128.179L145.982 128.173C145.141 128.196 144.393 128.962 144.393 129.802C144.393 130.643 145.136 131.415 145.971 131.444C146.812 131.473 147.606 130.754 147.658 129.918C147.722 129.078 147.026 128.26 146.191 128.179Z" fill="white"/>
<path d="M145.977 108.182C146.817 108.211 147.612 107.492 147.664 106.657C147.722 105.822 147.026 105.004 146.191 104.923L145.982 104.917C145.141 104.94 144.393 105.706 144.393 106.547C144.393 107.382 145.136 108.153 145.977 108.182Z" fill="white"/>
<path d="M120.935 49.5331C118.899 47.2829 116.852 45.0037 115.367 42.3592C113.883 39.7147 113.001 36.6236 113.494 33.6311C113.778 31.8797 114.526 30.2153 114.642 28.4465C114.805 26.0107 113.784 23.4648 114.642 21.1856C115.994 17.619 120.796 17.0681 123.707 14.6033C125.974 12.6837 127.076 9.56948 129.576 7.95145C131.756 6.5422 134.557 6.57119 137.127 6.93655C139.696 7.30192 142.282 7.95144 144.857 7.60348C146.69 7.35411 148.418 6.61759 150.216 6.17104C152.014 5.72448 154.014 5.60849 155.615 6.5364C157.216 7.4643 158.115 9.73766 157.065 11.2629C160.046 9.88844 163.833 12.214 164.65 15.3921C165.468 18.5701 163.833 22.0092 161.304 24.1027C158.776 26.2021 155.511 27.1764 152.286 27.7854C143.152 29.5078 133.247 28.5335 125.377 23.5924" fill="#263238"/>
<path d="M153.046 80.2349C152.599 76.7785 152.234 73.8962 152.211 73.5366C152.211 73.5366 163.763 70.9385 163.125 59.2585C162.818 53.6157 161.235 42.0343 159.686 31.578C158.022 20.3504 147.995 12.2893 136.669 13.0432L135.543 13.1186C123.446 14.638 117.983 25.7613 119.839 37.8124L126.363 78.2167C126.363 78.2167 129.147 87.1535 135.108 88.702L142.625 99.4425L143.866 94.8204L149.468 89.9431C149.468 89.9431 150.755 88.5512 152.228 85.8313C153.446 83.6101 153.191 81.3194 153.046 80.2349Z" fill="#FFBE9D"/>
<path d="M152.217 73.3686C152.217 73.3686 144.881 74.4647 136.709 70.063C136.709 70.063 140.867 78.2227 152.443 76.3901L152.217 73.3686Z" fill="#EB996E"/>
<path d="M155.934 41.6169C156.027 42.4926 155.354 43.293 154.438 43.4089C153.522 43.5191 152.71 42.8986 152.617 42.0229C152.53 41.1472 153.197 40.3411 154.107 40.2309C155.03 40.1149 155.841 40.7412 155.934 41.6169Z" fill="#263238"/>
<path d="M157.564 37.4762C157.372 37.7082 156.044 36.8557 154.252 36.9833C152.46 37.0819 151.202 38.091 150.993 37.888C150.889 37.7952 151.074 37.3893 151.619 36.9369C152.159 36.4846 153.092 36.0148 154.212 35.9452C155.331 35.8756 156.3 36.2236 156.868 36.6121C157.448 36.9891 157.657 37.3719 157.564 37.4762Z" fill="#263238"/>
<path d="M138.988 42.8291C139.081 43.7048 138.409 44.5051 137.492 44.6211C136.576 44.7313 135.764 44.1108 135.671 43.2351C135.584 42.3593 136.251 41.5532 137.167 41.443C138.084 41.327 138.901 41.9534 138.988 42.8291Z" fill="#263238"/>
<path d="M139.957 38.9899C139.766 39.2219 138.437 38.3694 136.645 38.497C134.853 38.5956 133.595 39.6047 133.386 39.4017C133.282 39.3089 133.467 38.9029 134.013 38.4506C134.546 37.9982 135.486 37.5285 136.599 37.4589C137.718 37.3893 138.687 37.7372 139.255 38.1258C139.835 38.5028 140.05 38.8855 139.957 38.9899Z" fill="#263238"/>
<path d="M147.351 51.8586C147.334 51.76 148.436 51.4875 150.228 51.1395C150.68 51.0641 151.109 50.9423 151.167 50.6234C151.254 50.287 151.028 49.8056 150.773 49.2837C150.268 48.205 149.74 47.0741 149.184 45.8853C146.968 41.0428 145.333 37.0528 145.53 36.9658C145.727 36.8788 147.676 40.7296 149.891 45.5721C150.425 46.7668 150.935 47.9034 151.422 48.9937C151.631 49.5041 151.967 50.0724 151.782 50.7741C151.683 51.1221 151.364 51.3947 151.074 51.4933C150.784 51.6035 150.529 51.6267 150.303 51.6556C148.494 51.876 147.368 51.9572 147.351 51.8586Z" fill="#263238"/>
<path d="M139.945 31.9262C139.8 32.4249 137.997 32.3147 135.909 32.7091C133.815 33.0628 132.157 33.7936 131.849 33.3702C131.71 33.1672 131.977 32.6917 132.632 32.1697C133.282 31.6536 134.337 31.1316 135.59 30.9055C136.843 30.6851 138.014 30.8069 138.803 31.0678C139.592 31.3346 140.009 31.6942 139.945 31.9262Z" fill="#263238"/>
<path d="M156.555 32.3264C156.265 32.7555 155.001 32.4133 153.516 32.4945C152.025 32.5235 150.79 32.9527 150.471 32.5467C150.332 32.3496 150.5 31.9262 151.028 31.5028C151.544 31.0853 152.431 30.7083 153.452 30.6677C154.473 30.6329 155.383 30.9403 155.928 31.3231C156.485 31.7116 156.682 32.1176 156.555 32.3264Z" fill="#263238"/>
<path d="M121.37 46.3957C121.167 46.3203 113.193 44.5573 113.981 52.5256C114.77 60.4882 123.4 57.8958 123.394 57.6639C123.382 57.4319 121.37 46.3957 121.37 46.3957Z" fill="#FFBE9D"/>
<path d="M119.862 55.0484C119.827 55.0252 119.734 55.1585 119.508 55.2919C119.288 55.4195 118.905 55.5297 118.476 55.4137C117.606 55.1875 116.765 53.9233 116.585 52.4908C116.492 51.7659 116.579 51.0642 116.777 50.4668C116.962 49.8579 117.299 49.4171 117.716 49.3012C118.128 49.162 118.453 49.3882 118.574 49.6027C118.702 49.8173 118.667 49.9797 118.714 49.9855C118.737 50.0029 118.87 49.8347 118.777 49.5099C118.731 49.3534 118.615 49.1794 118.412 49.0402C118.203 48.901 117.919 48.8546 117.623 48.9126C117.014 49.017 116.516 49.6375 116.295 50.2929C116.04 50.954 115.93 51.7485 116.034 52.5604C116.243 54.161 117.212 55.5819 118.4 55.7965C118.975 55.8893 119.427 55.6747 119.647 55.4601C119.868 55.2397 119.891 55.06 119.862 55.0484Z" fill="#EB996E"/>
<path d="M159.101 20.6987C158.555 23.871 152.124 26.7706 146.794 26.6199C141.882 26.4749 139.452 24.0391 135.88 22.3051C133.618 21.209 133.618 21.209 130.556 21.7078C128.074 22.1137 126.792 25.0366 125.4 27.1302C128.051 32.9122 126.978 39.6337 125.859 45.897C125.737 46.5872 125.58 47.3353 125.052 47.7992C124.159 48.5879 122.704 48.1182 121.828 47.3121C120.419 46.0246 119.775 44.105 119.317 42.255C118.267 38.0331 117.861 33.6081 118.528 29.305C119.195 25.0018 120.975 20.8263 123.916 17.6134C127.587 13.6002 132.957 11.2863 138.391 11.0079C143.825 10.7295 149.282 12.4114 153.829 15.3923C155.934 16.7667 157.906 18.4775 159.101 20.6987Z" fill="#263238"/>
<path d="M148.528 55.8894C147.177 55.2572 145.82 54.6251 144.469 53.9988C144.237 53.8886 143.987 53.7784 143.732 53.8132C143.442 53.8538 143.216 54.0684 143.03 54.2887C142.091 55.4312 141.853 57.1478 142.578 58.4353C143.309 59.7228 145.02 60.4013 146.388 59.8329C147.827 59.2356 148.528 57.5654 148.638 56.0112L148.528 55.8894Z" fill="#EB996E"/>
<path d="M146.516 60.123C146.528 60.1578 146.33 60.2737 145.924 60.3607C145.524 60.4361 144.898 60.4709 144.179 60.2332C143.465 60.007 142.659 59.4502 142.161 58.5571C141.656 57.6872 141.47 56.4635 141.911 55.3559C142.12 54.8049 142.451 54.3178 142.851 53.935C143.054 53.7436 143.268 53.5813 143.512 53.4363C143.639 53.3667 143.796 53.2971 143.982 53.2855C144.161 53.2739 144.324 53.3203 144.451 53.3783C144.718 53.4943 144.886 53.6219 145.083 53.7378C145.275 53.8538 145.455 53.9698 145.634 54.08C145.982 54.3004 146.313 54.5034 146.62 54.7005C147.827 55.4661 148.546 55.9706 148.505 56.046C148.465 56.1156 147.664 55.7386 146.406 55.0717C146.087 54.8977 145.745 54.7121 145.379 54.515C145.194 54.4106 145.002 54.3062 144.811 54.2018C144.62 54.0974 144.405 53.964 144.237 53.9002C144.051 53.8364 143.97 53.8422 143.79 53.9408C143.61 54.051 143.419 54.2018 143.257 54.3642C142.92 54.6947 142.648 55.1065 142.468 55.5762C142.097 56.5099 142.23 57.5248 142.642 58.2962C143.048 59.0733 143.703 59.5836 144.318 59.8388C144.938 60.0998 145.507 60.1346 145.89 60.1346C146.284 60.1172 146.499 60.0824 146.516 60.123Z" fill="#263238"/>
<path d="M145.234 41.8199C145.188 41.8257 145.24 41.0776 144.915 39.8017C144.596 38.5549 143.761 36.7165 141.882 35.2898C140.948 34.5939 139.777 34.0081 138.426 33.7704C137.086 33.5442 135.566 33.5848 134.128 34.1357C133.403 34.3909 132.702 34.7679 132.064 35.2492C131.414 35.719 130.823 36.3047 130.335 36.9832C129.332 38.3229 128.764 40.0395 128.746 41.8083C128.764 43.5771 129.326 45.2995 130.335 46.6392C130.823 47.3177 131.414 47.9035 132.064 48.379C132.707 48.8604 133.403 49.2431 134.128 49.4925C135.566 50.0434 137.086 50.084 138.426 49.8579C139.777 49.6201 140.948 49.0343 141.882 48.3384C143.761 46.9176 144.596 45.0792 144.915 43.8265C145.24 42.5564 145.188 41.8141 145.234 41.8199C145.24 41.8199 145.24 41.8663 145.24 41.9533C145.24 42.0635 145.234 42.1911 145.234 42.3477C145.234 42.5216 145.228 42.7362 145.182 42.9914C145.147 43.2466 145.118 43.5365 145.025 43.8613C144.892 44.5108 144.596 45.2822 144.126 46.1057C143.651 46.9234 142.961 47.7817 142.01 48.5124C141.064 49.2373 139.864 49.8521 138.472 50.1072C137.092 50.3508 135.526 50.316 134.035 49.7593C133.282 49.5041 132.557 49.1097 131.89 48.6168C131.217 48.1297 130.602 47.5265 130.098 46.8248C129.054 45.4387 128.462 43.6583 128.445 41.8199C128.462 39.9815 129.054 38.2011 130.098 36.815C130.602 36.1133 131.217 35.5102 131.89 35.023C132.557 34.5301 133.282 34.1357 134.035 33.8806C135.532 33.318 137.092 33.2832 138.472 33.5326C139.864 33.7878 141.064 34.4083 142.01 35.1274C142.961 35.8581 143.651 36.7165 144.126 37.5342C144.596 38.3577 144.892 39.129 145.025 39.7785C145.118 40.0975 145.147 40.3933 145.182 40.6484C145.222 40.9036 145.234 41.1182 145.234 41.2922C145.234 41.4488 145.24 41.5821 145.24 41.6865C145.24 41.7735 145.24 41.8199 145.234 41.8199Z" fill="#263238"/>
<path d="M165.091 41.0371C165.045 41.0429 165.097 40.3121 164.778 39.0711C164.465 37.8532 163.653 36.0612 161.82 34.6809C160.916 34.0024 159.773 33.4283 158.457 33.2021C157.152 32.9817 155.673 33.0223 154.269 33.5616C153.562 33.8052 152.883 34.1764 152.257 34.6461C151.625 35.1043 151.051 35.6784 150.575 36.3396C149.595 37.6444 149.044 39.3146 149.027 41.0429C149.044 42.7711 149.595 44.4413 150.569 45.7462C151.045 46.4073 151.619 46.9756 152.251 47.4396C152.878 47.9093 153.556 48.2805 154.264 48.5241C155.667 49.0576 157.14 49.104 158.451 48.8836C159.767 48.6516 160.91 48.0775 161.814 47.4048C163.647 46.0187 164.459 44.2325 164.766 43.0146C165.097 41.762 165.045 41.0313 165.091 41.0371C165.103 41.0371 165.103 41.2168 165.097 41.5532C165.097 41.7214 165.091 41.936 165.051 42.1795C165.016 42.4289 164.987 42.7131 164.9 43.0262C164.616 44.2673 163.821 46.1173 161.959 47.5614C161.037 48.2689 159.866 48.872 158.509 49.1156C157.163 49.3534 155.638 49.3186 154.183 48.7734C153.452 48.5241 152.744 48.1413 152.095 47.6542C151.439 47.1786 150.842 46.5929 150.349 45.9085C149.328 44.5573 148.754 42.8233 148.743 41.0313C148.76 39.2392 149.334 37.5052 150.355 36.154C150.848 35.4696 151.445 34.8781 152.101 34.4084C152.75 33.927 153.458 33.5443 154.188 33.2949C155.644 32.7497 157.169 32.7149 158.515 32.9527C159.872 33.2021 161.043 33.8052 161.965 34.5069C163.827 35.951 164.621 37.7952 164.906 39.0421C164.993 39.3552 165.027 39.6394 165.056 39.8888C165.097 40.1324 165.109 40.3469 165.103 40.5151C165.103 40.8573 165.103 41.0371 165.091 41.0371Z" fill="#263238"/>
<path d="M148.888 39.2044C148.853 39.2391 148.662 39.0768 148.314 38.9086C147.966 38.7404 147.444 38.578 146.852 38.5896C146.266 38.5954 145.744 38.781 145.402 38.9608C145.054 39.1406 144.875 39.3087 144.84 39.2797C144.811 39.2565 144.944 39.0246 145.292 38.781C145.634 38.5374 146.191 38.2996 146.846 38.288C147.496 38.2764 148.064 38.491 148.418 38.723C148.766 38.955 148.911 39.1812 148.888 39.2044Z" fill="#263238"/>
<path d="M129.1 40.6367C129.152 40.7063 127.523 42.0053 125.464 43.5364C123.405 45.0732 121.7 46.2621 121.648 46.1983C121.596 46.1287 123.225 44.8296 125.284 43.2986C127.343 41.7618 129.054 40.5671 129.1 40.6367Z" fill="#263238"/>
<g opacity="0.3">
<path d="M122.239 78.3792C121.433 86.2489 124.426 94.5594 130.736 99.3265C131.229 99.7035 131.855 100.069 132.435 99.8601C132.841 99.7151 133.102 99.3265 133.316 98.9496C135.114 95.8353 135.717 92.3963 135.201 88.8354C134.204 91.4684 133.345 94.0491 132.336 96.8038C126.833 93.4691 123.405 86.3707 122.239 78.3792Z" fill="black"/>
</g>
<path opacity="0.3" d="M143.61 96.2761L148.244 94.5827L149.01 102.418C149.01 102.418 154.009 93.3068 156.079 89.1487C158.149 84.9905 157.082 77.6543 157.082 77.6543C157.082 77.6543 157.825 84.0452 152.814 92.1934L149.033 98.3407V91.9034L143.61 96.2761Z" fill="black"/>
<g opacity="0.3">
<path d="M89.7224 136.095C87.6578 135.121 85.2801 134.987 83.0125 135.254C80.6173 135.532 78.2106 136.269 76.3316 137.782C74.4526 139.296 73.1825 141.685 73.4145 144.086L73.6465 144.121C75.2645 139.748 78.4774 136.565 82.6239 136.176C86.7705 135.793 90.8127 137.637 93.6602 140.676C93.3818 138.403 91.7928 137.069 89.7224 136.095Z" fill="black"/>
</g>
<g opacity="0.3">
<path d="M206.864 140.566C205.31 138.89 203.129 137.875 200.879 137.481C196.93 136.791 192.69 138.02 189.715 140.711L190.597 139.992C192.841 138.675 195.428 137.898 198.032 137.974C200.63 138.049 203.234 139.012 205.119 140.804C206.853 142.451 207.891 144.684 208.882 146.858C209.277 144.614 208.418 142.242 206.864 140.566Z" fill="black"/>
</g>
<path d="M177.003 104.181C176.986 104.175 177.061 103.949 177.212 103.548C177.392 103.09 177.612 102.528 177.873 101.861C178.436 100.44 179.201 98.474 180.019 96.2935C180.831 94.1071 181.533 92.1179 182.037 90.6739C182.275 90.0011 182.478 89.4328 182.64 88.9688C182.785 88.5687 182.878 88.3483 182.895 88.3541C182.913 88.3599 182.861 88.5919 182.75 89.0036C182.64 89.4154 182.466 90.0127 182.24 90.7435C181.788 92.2049 181.115 94.2115 180.303 96.3979C179.491 98.5842 178.685 100.539 178.076 101.942C177.769 102.644 177.514 103.206 177.328 103.595C177.137 103.978 177.021 104.192 177.003 104.181Z" fill="#263238"/>
<path d="M103.89 104.749C103.809 104.767 103.177 102.006 102.481 98.5844C101.785 95.1627 101.286 92.3791 101.368 92.3617C101.449 92.3443 102.081 95.1047 102.777 98.5264C103.473 101.948 103.971 104.732 103.89 104.749Z" fill="#263238"/>
<path d="M102.794 139.249C102.98 139.342 100.672 121.179 100.672 121.179C100.672 121.179 102.128 107.393 102.945 106.755L102.968 101.89C102.968 101.89 105.224 100.521 105.828 102.731C105.828 102.731 107.828 100.997 108.176 105.126C108.524 109.261 108.6 113.483 108.6 113.483L113.048 124.606L113.778 124.977C113.778 124.977 114.735 116.261 115.292 114.979C115.849 113.697 116.232 110.577 118.337 111.047C120.448 111.517 120.622 113.262 120.245 116.104C119.868 118.946 119.392 121.88 119.572 123.719C119.746 125.557 120.581 129.599 120.326 132.806C120.071 136.019 118.314 139.406 116.464 141.784C114.619 144.162 111.093 149.079 109.174 150.564C108.501 151.086 102.794 139.249 102.794 139.249Z" fill="#FFBE9D"/>
<path d="M105.045 124.467C105.021 124.467 105.027 124.189 105.056 123.69C105.097 123.133 105.143 122.426 105.201 121.579C105.335 119.799 105.543 117.34 105.793 114.626C105.92 113.274 106.042 111.981 106.152 110.804C106.21 110.218 106.245 109.667 106.17 109.163C106.1 108.658 105.903 108.223 105.613 107.91C105.027 107.272 104.267 107.11 103.798 107.115C103.305 107.11 103.05 107.243 103.038 107.214C103.032 107.202 103.096 107.173 103.218 107.121C103.345 107.075 103.537 107.017 103.792 106.999C104.291 106.965 105.103 107.092 105.769 107.771C106.1 108.107 106.332 108.594 106.413 109.128C106.506 109.667 106.471 110.241 106.425 110.833C106.32 112.016 106.204 113.303 106.088 114.66C105.839 117.374 105.595 119.828 105.41 121.602C105.311 122.443 105.23 123.151 105.166 123.702C105.108 124.195 105.062 124.467 105.045 124.467Z" fill="#EB996E"/>
<path d="M107.434 117.038C107.48 117.073 106.982 117.508 106.645 118.47C106.286 119.416 106.158 120.842 105.903 122.391C105.665 123.945 105.427 125.348 105.248 126.358C105.062 127.372 104.929 127.993 104.888 127.987C104.847 127.981 104.905 127.343 105.039 126.323C105.166 125.302 105.369 123.893 105.607 122.339C105.856 120.796 106.019 119.363 106.448 118.383C106.651 117.896 106.895 117.542 107.092 117.322C107.283 117.113 107.422 117.026 107.434 117.038Z" fill="#EB996E"/>
<path d="M105.798 102.493C105.822 102.487 105.874 102.69 105.955 103.067C106.036 103.438 106.135 103.978 106.245 104.65C106.465 105.99 106.709 107.852 106.866 109.922C107.016 111.992 107.051 113.871 107.028 115.228C107.016 115.907 106.999 116.458 106.97 116.835C106.947 117.212 106.924 117.421 106.9 117.421C106.854 117.421 106.848 116.58 106.813 115.228C106.779 113.871 106.715 112.004 106.564 109.945C106.413 107.886 106.204 106.025 106.036 104.679C105.868 103.328 105.758 102.499 105.798 102.493Z" fill="#EB996E"/>
<path d="M118.632 119.52C118.679 119.59 117.983 119.909 117.136 119.648C116.284 119.393 115.889 118.737 115.965 118.708C116.034 118.65 116.475 119.143 117.223 119.364C117.965 119.596 118.609 119.433 118.632 119.52Z" fill="#EB996E"/>
<path d="M103.044 136.988L91.2884 141.929H84.2827C84.2827 141.929 77.3582 144.092 76.2911 150.582C75.2241 157.077 75.0733 160.417 78.118 161.218C81.1626 162.018 89.7631 162.111 94.0257 160.696C98.2882 159.281 109.458 150.268 109.458 150.268L110.537 143.75L103.044 136.988Z" fill="#FFBE9D"/>
<path d="M105.799 144.167C105.781 144.179 105.665 144.075 105.462 143.86C105.253 143.657 104.998 143.321 104.697 142.892C104.117 142.022 103.479 140.705 103.055 139.174C102.615 137.643 102.429 136.211 102.33 135.178C102.243 134.146 102.243 133.502 102.284 133.497C102.33 133.491 102.4 134.129 102.539 135.149C102.69 136.17 102.91 137.579 103.34 139.087C103.757 140.601 104.349 141.894 104.871 142.776C105.41 143.651 105.839 144.127 105.799 144.167Z" fill="#EB996E"/>
<path d="M110.919 146.226C110.855 146.203 111.383 145.31 111.586 143.704C111.685 142.909 111.673 141.941 111.447 140.902C111.221 139.864 110.728 138.797 110.009 137.8C109.295 136.796 108.489 135.927 107.816 135.086C107.132 134.245 106.587 133.427 106.227 132.685C105.868 131.942 105.7 131.287 105.636 130.829C105.578 130.371 105.601 130.116 105.618 130.116C105.676 130.104 105.659 131.154 106.419 132.586C106.79 133.299 107.347 134.088 108.031 134.906C108.715 135.729 109.527 136.599 110.258 137.62C110.995 138.635 111.511 139.76 111.725 140.833C111.946 141.906 111.928 142.909 111.801 143.721C111.673 144.539 111.447 145.171 111.261 145.588C111.174 145.797 111.087 145.954 111.024 146.058C110.96 146.18 110.925 146.232 110.919 146.226Z" fill="#EB996E"/>
<path d="M92.7961 117.925C92.7207 117.966 91.439 115.629 89.9312 112.712C88.4233 109.794 87.2635 107.399 87.3331 107.359C87.4084 107.318 88.6901 109.655 90.198 112.572C91.7058 115.489 92.8715 117.885 92.7961 117.925Z" fill="white"/>
<path d="M111.806 96.7632C111.731 96.7284 112.526 94.7856 113.575 92.4194C114.631 90.0533 115.547 88.1627 115.622 88.1975C115.698 88.2323 114.903 90.1751 113.854 92.5412C112.798 94.9074 111.882 96.798 111.806 96.7632Z" fill="white"/>
<path d="M130.422 110.496C130.359 110.548 129.164 109.215 127.761 107.515C126.351 105.816 125.267 104.395 125.331 104.343C125.394 104.291 126.589 105.625 127.992 107.324C129.396 109.023 130.486 110.444 130.422 110.496Z" fill="white"/>
<path d="M126.137 129.385C126.067 129.338 126.966 127.981 128.143 126.358C129.32 124.734 130.33 123.458 130.393 123.51C130.463 123.556 129.564 124.914 128.387 126.537C127.215 128.161 126.206 129.437 126.137 129.385Z" fill="white"/>
<path d="M120.372 156.068C120.337 156.085 120.07 155.645 119.693 154.902C119.311 154.16 118.818 153.122 118.325 151.956C117.826 150.785 117.426 149.712 117.153 148.923C116.887 148.134 116.747 147.636 116.788 147.624C116.829 147.612 117.037 148.082 117.356 148.848C117.722 149.718 118.139 150.727 118.603 151.84C119.079 152.948 119.514 153.945 119.891 154.815C120.215 155.569 120.413 156.045 120.372 156.068Z" fill="white"/>
<path d="M136.749 144.724C136.732 144.806 135.155 144.568 133.229 144.197C131.298 143.825 129.75 143.454 129.767 143.373C129.784 143.292 131.362 143.53 133.287 143.901C135.218 144.272 136.767 144.643 136.749 144.724Z" fill="white"/>
<path d="M149.456 119.793C149.392 119.735 150.9 118.018 152.814 115.948C154.728 113.883 156.334 112.254 156.392 112.312C156.456 112.37 154.948 114.086 153.034 116.157C151.115 118.221 149.514 119.851 149.456 119.793Z" fill="white"/>
<path d="M162.232 153.04C162.168 153.093 160.295 150.924 158.045 148.192C155.795 145.461 154.026 143.205 154.09 143.153C154.154 143.1 156.027 145.269 158.277 148.001C160.527 150.732 162.296 152.988 162.232 153.04Z" fill="white"/>
<path d="M82.908 138.873C82.9486 138.954 81.2378 139.824 79.3704 141.256C77.4972 142.677 76.2039 144.104 76.1343 144.04C76.1053 144.017 76.3895 143.628 76.9231 143.054C77.4508 142.486 78.2395 141.743 79.1848 141.019C80.1301 140.299 81.058 139.737 81.7482 139.372C82.4383 139.012 82.8906 138.838 82.908 138.873Z" fill="white"/>
<path d="M87.6868 126.056C87.7564 126.102 87.1475 127.141 86.3239 128.376C85.5004 129.611 84.7813 130.574 84.7117 130.527C84.6421 130.481 85.2511 129.443 86.0746 128.208C86.8923 126.972 87.6172 126.01 87.6868 126.056Z" fill="white"/>
<path d="M98.4504 138.641C98.3866 138.681 97.7776 137.666 97.4645 136.257C97.1397 134.854 97.2499 133.676 97.3253 133.682C97.4181 133.682 97.4471 134.825 97.7603 136.187C98.0618 137.556 98.5316 138.6 98.4504 138.641Z" fill="white"/>
<path d="M100.045 98.6715C100.057 98.7527 99.0593 98.9672 97.8125 99.1412C96.5656 99.321 95.5449 99.3964 95.5333 99.3152C95.5217 99.234 96.5192 99.0194 97.7661 98.8455C99.0129 98.6657 100.034 98.5903 100.045 98.6715Z" fill="white"/>
<path d="M108.13 84.3295C108.17 84.4049 107.294 84.9674 106.175 85.588C105.056 86.2085 104.111 86.655 104.07 86.5796C104.029 86.5043 104.905 85.9417 106.024 85.3212C107.149 84.7006 108.089 84.2599 108.13 84.3295Z" fill="white"/>
<path d="M130.869 90.3899C130.805 90.4421 129.802 89.2358 128.63 87.699C127.459 86.1622 126.566 84.8805 126.635 84.8283C126.699 84.7761 127.702 85.9824 128.874 87.5192C130.04 89.0503 130.939 90.3377 130.869 90.3899Z" fill="white"/>
<path d="M159.733 104.807C159.675 104.859 158.619 103.775 157.645 102.197C156.659 100.62 156.154 99.1991 156.224 99.1701C156.305 99.1353 156.931 100.487 157.9 102.041C158.868 103.595 159.802 104.749 159.733 104.807Z" fill="white"/>
<path d="M170.751 108.438C170.827 108.472 170.293 109.818 169.557 111.436C168.82 113.06 168.165 114.347 168.084 114.312C168.008 114.278 168.542 112.932 169.278 111.314C170.015 109.69 170.676 108.403 170.751 108.438Z" fill="white"/>
<path d="M172.294 93.3997C172.23 93.4519 170.92 91.9846 169.365 90.1172C167.811 88.2498 166.605 86.6898 166.669 86.6376C166.732 86.5854 168.043 88.0526 169.597 89.92C171.146 91.7932 172.358 93.3475 172.294 93.3997Z" fill="white"/>
<path d="M155.464 81.1863C155.383 81.1921 155.261 79.9337 155.203 78.3736C155.139 76.8194 155.163 75.5551 155.244 75.5493C155.325 75.5435 155.447 76.802 155.505 78.362C155.569 79.9221 155.551 81.1863 155.464 81.1863Z" fill="white"/>
<path d="M169.185 80.4266C169.197 80.5077 167.591 80.7919 165.607 81.0587C163.618 81.3255 162 81.4704 161.988 81.3893C161.977 81.3081 163.577 81.0239 165.567 80.7571C167.55 80.4904 169.174 80.3454 169.185 80.4266Z" fill="white"/>
<path d="M190.794 96.2994C190.719 96.3342 189.756 94.4958 188.637 92.1934C187.523 89.8911 186.676 87.9889 186.752 87.9541C186.827 87.9193 187.79 89.7577 188.909 92.0601C190.023 94.3624 190.869 96.2646 190.794 96.2994Z" fill="white"/>
<path d="M187.152 110.015C187.071 109.998 187.297 108.519 187.657 106.715C188.016 104.906 188.376 103.456 188.457 103.473C188.538 103.491 188.312 104.97 187.952 106.773C187.593 108.577 187.239 110.032 187.152 110.015Z" fill="white"/>
<path d="M197.179 120.825C197.098 120.854 196.332 118.859 195.457 116.371C194.587 113.883 193.943 111.842 194.024 111.813C194.105 111.784 194.871 113.779 195.747 116.267C196.617 118.76 197.255 120.796 197.179 120.825Z" fill="white"/>
<path d="M195.781 127.152C195.764 127.227 194.378 126.937 192.853 126.102C191.322 125.279 190.318 124.276 190.376 124.223C190.434 124.154 191.501 125.035 192.998 125.841C194.482 126.648 195.81 127.065 195.781 127.152Z" fill="white"/>
<path d="M208.621 141.569C208.546 141.604 208.082 140.723 207.583 139.603C207.085 138.484 206.742 137.55 206.818 137.516C206.893 137.481 207.357 138.362 207.856 139.482C208.355 140.601 208.697 141.535 208.621 141.569Z" fill="white"/>
<path d="M132.789 161.682C132.707 161.693 132.504 160.539 132.336 159.113C132.168 157.686 132.104 156.52 132.185 156.509C132.267 156.497 132.47 157.651 132.638 159.078C132.806 160.504 132.87 161.67 132.789 161.682Z" fill="white"/>
<path d="M172.184 160.684C172.103 160.667 172.271 159.542 172.561 158.173C172.851 156.804 173.152 155.708 173.233 155.726C173.315 155.743 173.146 156.868 172.856 158.237C172.566 159.606 172.265 160.702 172.184 160.684Z" fill="white"/>
<path d="M179.735 45.6881L184.826 36.7107C182.571 33.0512 181.271 28.7481 181.271 24.1376C181.271 10.8744 192.024 0.122314 205.287 0.122314C218.55 0.122314 229.302 10.8744 229.302 24.1376C229.302 37.4008 218.55 48.1528 205.287 48.1528C199.748 48.1528 194.651 46.2738 190.591 43.1248L190.597 43.1364L179.735 45.6881Z" fill="#FAFAFA"/>
<path d="M179.735 45.6882C180.251 45.5722 183.69 44.7835 190.614 43.2003L190.724 43.1771L190.655 43.0843L190.649 43.0727L190.545 43.1771C191.913 44.2384 193.555 45.2823 195.486 46.158C197.417 47.0163 199.632 47.7122 202.074 48.037C203.292 48.1936 204.568 48.2922 205.878 48.2284C206.534 48.1936 207.201 48.1762 207.873 48.1182C208.54 48.0196 209.219 47.9152 209.903 47.8108C212.623 47.2715 215.401 46.2392 217.999 44.6327C220.591 43.0263 222.992 40.8515 224.918 38.178C226.837 35.5045 228.293 32.338 228.977 28.899C229.65 25.46 229.598 21.7774 228.693 18.2107C227.783 14.6557 226.083 11.1877 223.543 8.33438L222.563 7.25569C222.238 6.89033 221.856 6.59456 221.508 6.2582C221.142 5.94503 220.812 5.58547 220.417 5.3071L219.263 4.44299C218.892 4.14142 218.48 3.89785 218.069 3.65427C217.663 3.4049 217.257 3.16133 216.851 2.91195C216.422 2.70317 215.998 2.5002 215.575 2.29142C215.146 2.09424 214.734 1.86226 214.287 1.71728C210.796 0.331227 207.079 -0.196521 203.518 0.0644514C199.957 0.319624 196.553 1.34032 193.636 2.98734C190.707 4.61697 188.237 6.79754 186.329 9.22748C184.415 11.6632 183.069 14.3425 182.234 17.0161C181.405 19.7012 181.179 22.3631 181.19 24.8278C181.26 27.2984 181.712 29.5775 182.368 31.5725C183.023 33.5733 183.887 35.2957 184.774 36.7398V36.6702C181.556 42.4348 179.984 45.2475 179.735 45.6882C179.99 45.2475 181.596 42.458 184.89 36.7456L184.913 36.7108L184.89 36.676C184.015 35.2319 183.168 33.5153 182.524 31.5261C181.886 29.5369 181.445 27.281 181.387 24.8278C181.387 22.3805 181.619 19.7476 182.449 17.0915C183.284 14.4469 184.623 11.7966 186.52 9.38987C188.41 6.98892 190.858 4.83735 193.758 3.23092C196.646 1.60709 200.015 0.603794 203.53 0.354421C207.044 0.105047 210.721 0.626993 214.166 1.99565C214.606 2.13483 215.012 2.36681 215.436 2.56399C215.853 2.76697 216.277 2.96995 216.694 3.17872C217.094 3.4223 217.494 3.66587 217.9 3.90945C218.306 4.15302 218.712 4.3908 219.078 4.69236L220.214 5.54487C220.603 5.81745 220.928 6.17121 221.287 6.48437C221.629 6.81494 222.012 7.11071 222.331 7.47027L223.3 8.53736C225.811 11.3559 227.487 14.7833 228.386 18.2919C229.279 21.8122 229.337 25.4542 228.676 28.8526C228.003 32.251 226.57 35.3885 224.674 38.0272C222.778 40.6776 220.406 42.8349 217.842 44.424C215.279 46.0246 212.53 47.0511 209.839 47.5904C209.161 47.6948 208.488 47.7992 207.833 47.8978C207.166 47.9558 206.505 47.9732 205.861 48.0138C204.562 48.0834 203.298 47.9848 202.091 47.834C199.667 47.5208 197.469 46.8365 195.55 45.9956C193.63 45.1373 191.995 44.1108 190.626 43.0669L190.179 42.7247L190.521 43.1713L190.527 43.1829L190.568 43.0669C183.678 44.7313 180.251 45.5664 179.735 45.6882Z" fill="#263238"/>
<path d="M211.77 23.1344C211.77 24.4277 212.82 25.4832 214.119 25.4832C215.418 25.4832 216.468 24.4335 216.468 23.1344C216.468 21.8411 215.418 20.7856 214.119 20.7856C212.82 20.7856 211.77 21.8411 211.77 23.1344Z" fill="#263238"/>
<path d="M202.381 23.1344C202.381 24.4277 203.431 25.4832 204.73 25.4832C206.029 25.4832 207.079 24.4335 207.079 23.1344C207.079 21.8411 206.029 20.7856 204.73 20.7856C203.431 20.7856 202.381 21.8411 202.381 23.1344Z" fill="#263238"/>
<path d="M193.015 21.9628C192.366 23.0879 192.754 24.5204 193.873 25.1699C194.999 25.8194 196.431 25.4309 197.081 24.3116C197.73 23.1865 197.341 21.7541 196.222 21.1045C195.097 20.455 193.659 20.8378 193.015 21.9628Z" fill="#263238"/>
</svg>
