<svg width="34" height="34" viewBox="0 0 34 34" fill="none" xmlns="http://www.w3.org/2000/svg">
<path d="M25.3008 12.6769H8.69922C7.96875 12.6769 7.37109 12.0793 7.37109 11.3488C7.37109 10.6183 7.96875 10.0207 8.69922 10.0207H25.3008C26.0312 10.0207 26.6289 10.6183 26.6289 11.3488C26.6289 12.0793 26.0312 12.6769 25.3008 12.6769Z" fill="#333333"/>
<path d="M25.3008 23.9793H8.69922C7.96875 23.9793 7.37109 23.3817 7.37109 22.6512C7.37109 21.9207 7.96875 21.3231 8.69922 21.3231H25.3008C26.0312 21.3231 26.6289 21.9207 26.6289 22.6512C26.6289 23.3817 26.0312 23.9793 25.3008 23.9793Z" fill="#333333"/>
<path d="M25.3008 18.3281H8.69922C7.96875 18.3281 7.37109 17.7305 7.37109 17C7.37109 16.2695 7.96875 15.6719 8.69922 15.6719H25.3008C26.0312 15.6719 26.6289 16.2695 26.6289 17C26.6289 17.7305 26.0312 18.3281 25.3008 18.3281Z" fill="#333333"/>
</svg>
