<?xml version="1.0" encoding="utf-8"?>
<!-- Generator: Adobe Illustrator 24.2.3, SVG Export Plug-In . SVG Version: 6.00 Build 0)  -->
<svg version="1.1" id="Слой_1" xmlns="http://www.w3.org/2000/svg" xmlns:xlink="http://www.w3.org/1999/xlink" x="0px" y="0px"
	 viewBox="0 0 14 14" style="enable-background:new 0 0 14 14;" xml:space="preserve">
<style type="text/css">
	.st0{fill-rule:evenodd;clip-rule:evenodd;fill:#FD890A;}
</style>
<path class="st0" d="M13.2,0L0.6,4.9C0.5,4.9,0.4,5,0.3,5.1S0.2,5.3,0.2,5.5c0,0.1,0,0.2,0.1,0.4S0.5,6,0.6,6l2.8,1
	c0.1,0,0.3,0.1,0.4,0C3.9,7,4.1,7,4.2,6.9l6.1-3.7c0,0,0.1,0,0.1,0c0,0,0.1,0,0.1,0.1c0,0,0,0.1,0,0.1c0,0,0,0.1,0,0.1L5.9,8.2
	C5.9,8.3,5.8,8.4,5.8,8.5c0,0.1-0.1,0.2-0.1,0.3l0,4.8c0,0.1,0,0.2,0.1,0.3C5.8,13.9,5.9,14,6,14c0.1,0,0.2,0,0.3,0
	c0.1,0,0.2-0.1,0.2-0.2l1.7-3.4c0.1-0.2,0.3-0.3,0.4-0.3c0.2,0,0.4,0,0.5,0.1l3,1.7c0.1,0.1,0.2,0.1,0.3,0.1c0.1,0,0.2,0,0.3-0.1
	c0.1-0.1,0.2-0.1,0.2-0.2c0.1-0.1,0.1-0.2,0.1-0.3l0.7-10.8c0-0.1,0-0.1,0-0.2s-0.1-0.1-0.1-0.2C13.5,0,13.5,0,13.4,0
	C13.3,0,13.3,0,13.2,0z"/>
</svg>
