<svg width="21" height="22" viewBox="0 0 21 22" fill="none" xmlns="http://www.w3.org/2000/svg">
<path d="M10.6207 21.9999C9.37132 21.9358 8.13282 21.9037 6.88345 21.8182C5.74272 21.7326 4.6237 21.5401 3.5373 21.1445C1.76645 20.5136 0.745244 19.2946 0.495371 17.4446C0.343274 16.3432 0.354131 15.2632 0.658325 14.1832C0.995111 12.9641 1.58176 11.8841 2.37483 10.9004C3.41778 9.61718 4.68891 8.61202 6.20988 7.92765C6.22075 7.92765 6.22073 7.91695 6.2316 7.91695C6.66616 7.69239 7.06812 7.57477 7.54614 7.89557C8.03502 8.21637 8.64343 8.29119 9.23009 8.33396C10.2296 8.39812 11.2291 8.37674 12.1851 8.03456C12.5545 7.90624 12.8913 7.6817 13.2172 7.48922C13.3584 7.40368 13.4562 7.3716 13.6192 7.42507C16.3678 8.3233 18.4537 10.0342 19.8877 12.5044C20.5287 13.6058 20.8764 14.8034 20.8764 16.0759C20.8764 17.1238 20.7677 18.1611 20.2571 19.1235C19.8443 19.8934 19.2359 20.4494 18.4537 20.8451C17.4107 21.369 16.2917 21.615 15.151 21.754C14.4014 21.8395 13.6518 21.9037 12.8913 21.9358C12.1417 21.9678 11.3812 21.9465 10.6207 21.9465C10.6207 21.9465 10.6207 21.9785 10.6207 21.9999ZM10.7185 17.6905C10.7836 17.6692 10.8271 17.6585 10.8597 17.6478C10.914 17.6371 10.9575 17.6264 11.0118 17.605C11.794 17.3377 12.3372 16.8565 12.4567 16.0224C12.5762 15.1883 12.2611 14.5254 11.5224 14.0976C11.1313 13.8731 10.6967 13.7234 10.2947 13.5309C10.0775 13.424 9.86018 13.317 9.67549 13.1566C9.41475 12.9321 9.45823 12.5471 9.76242 12.3653C9.87106 12.3012 10.0014 12.2584 10.1318 12.237C10.6641 12.1729 11.1639 12.2798 11.6419 12.515C11.8157 12.6006 11.9135 12.5792 11.9569 12.3867C12.0113 12.1515 12.0873 11.9162 12.1742 11.681C12.2394 11.4885 12.2177 11.3709 12.0113 11.3174C11.6093 11.1998 11.2073 11.0928 10.7728 10.9645C10.7728 10.7614 10.7728 10.5154 10.7728 10.2695C10.7728 10.1412 10.7185 10.0663 10.5772 10.0663C10.3382 10.0663 10.0883 10.0663 9.84932 10.0663C9.70808 10.0663 9.65377 10.1304 9.65377 10.2588C9.65377 10.4619 9.64291 10.6651 9.65377 10.8683C9.66464 11.0394 9.61031 11.0928 9.44735 11.157C9.18661 11.2532 8.92587 11.3602 8.69773 11.5099C7.8286 12.1087 7.70911 13.3812 8.437 14.1297C8.79552 14.4933 9.25179 14.6858 9.70808 14.8783C10.0014 15.0066 10.3056 15.1242 10.5772 15.2846C10.8271 15.4236 10.9575 15.6482 10.914 15.9369C10.8706 16.2363 10.6533 16.4074 10.3708 16.4608C10.1209 16.5036 9.84932 16.5464 9.61031 16.4929C9.20834 16.4074 8.82812 16.2684 8.44788 16.1293C8.24146 16.0545 8.20886 16.0545 8.13281 16.2684C8.08935 16.4288 8.03503 16.5892 7.99157 16.7496C7.82861 17.3056 7.82863 17.3163 8.38269 17.4981C8.76294 17.6157 9.15404 17.6906 9.56687 17.7975C9.56687 18.0327 9.56687 18.2894 9.56687 18.546C9.56687 18.685 9.6212 18.7599 9.77329 18.7599C10.0123 18.7599 10.2404 18.7599 10.4795 18.7599C10.6315 18.7599 10.7076 18.7064 10.7076 18.546C10.7185 18.268 10.7185 17.9793 10.7185 17.6905Z" fill="#333333"/>
<path d="M6.78555 1.83256C7.23097 1.87533 7.6764 1.88602 8.11097 1.72562C8.38257 1.61869 8.57812 1.43691 8.68676 1.16958C8.78454 0.945023 8.87143 0.709777 9.00179 0.506606C9.47981 -0.167069 10.2946 -0.167079 10.7835 0.495902C10.9465 0.72046 11.0551 0.97709 11.1638 1.22303C11.3593 1.66146 11.5983 1.75769 12.0329 1.55452C12.3045 1.4262 12.5543 1.25512 12.8368 1.15888C13.0432 1.08402 13.2823 1.07332 13.4995 1.08402C13.7929 1.1054 13.9775 1.31927 13.9667 1.61868C13.9558 1.83254 13.9124 2.05712 13.8146 2.23891C13.3257 3.2013 12.9672 4.19576 12.8586 5.27578C12.8477 5.4041 12.8151 5.5431 12.8368 5.66072C12.9346 6.20608 12.5978 6.47341 12.1632 6.66589C11.4679 6.97599 10.7292 7.11502 9.95784 7.11502C9.18649 7.11502 8.42601 7.00807 7.68725 6.76213C7.35046 6.6445 7.1006 6.46273 6.9485 6.10985C6.54653 5.12608 6.11197 4.16369 5.68827 3.17992C5.64481 3.08368 5.59048 2.98742 5.54703 2.89118C5.27543 2.32444 5.5579 1.85393 6.19888 1.82185C6.4053 1.82185 6.58999 1.83256 6.78555 1.83256Z" fill="#333333"/>
</svg>
