<svg width="37" height="37" viewBox="0 0 37 37" fill="none" xmlns="http://www.w3.org/2000/svg">
<path d="M31.2181 35.8616L31.2191 35.8626C31.4754 36.1161 31.7858 36.25 32.1386 36.25C32.4739 36.25 32.8304 36.1273 33.0654 35.8545L35.8892 33.0266L35.8893 33.0268L35.8957 33.0199C36.3692 32.5089 36.3819 31.6869 35.8497 31.1994L29.4846 24.8331L29.4836 24.8321C29.227 24.5783 28.9165 24.4454 28.5642 24.4454C28.2286 24.4454 27.8711 24.5677 27.6359 24.8419L27.0778 25.4206L26.6025 24.93C28.7805 22.3566 30.1238 19.0426 30.1238 15.4204C30.1238 7.33715 23.536 0.75 15.4366 0.75C7.3371 0.75 0.75 7.33716 0.75 15.4204C0.75 23.5391 7.33751 30.0901 15.4366 30.0901C19.0614 30.0901 22.3765 28.7626 24.9439 26.5753L25.4178 27.0441L24.8478 27.6342C24.3265 28.1521 24.327 28.9753 24.8495 29.4925C24.8496 29.4926 24.8498 29.4928 24.8499 29.4929L31.2181 35.8616ZM9.9744 13.4764L9.97442 13.4764L9.9756 13.4731C10.7895 11.1585 13.0299 9.58027 15.4718 9.58027C16.1024 9.58027 16.6424 9.05129 16.6424 8.42041C16.6424 7.78977 16.1027 7.25986 15.4718 7.25986C12.005 7.25986 8.90478 9.46108 7.73628 12.708C7.51238 13.2893 7.82159 14.0041 8.46301 14.189C8.46625 14.1901 8.46955 14.1912 8.4729 14.1923C8.56968 14.2243 8.70889 14.2704 8.85513 14.2704C9.35165 14.2704 9.79756 13.9574 9.9744 13.4764ZM7.57884 17.2053V17.2143L7.57949 17.2233C7.62331 17.8301 8.10928 18.3651 8.78464 18.3651C9.41552 18.3651 9.95451 17.8359 9.95451 17.2053V17.1C9.95451 16.4468 9.46317 15.9053 8.78464 15.9053H8.7487C8.12419 15.9053 7.57884 16.3933 7.57884 17.0651V17.2053ZM15.4366 3.38486C22.0921 3.38486 27.5007 8.80313 27.5007 15.4553C27.5007 22.1065 22.0931 27.4901 15.4366 27.4901C8.78005 27.4901 3.37308 22.1065 3.37308 15.4553C3.37308 8.80311 8.78099 3.38486 15.4366 3.38486ZM32.1398 33.1273L27.6094 28.5815L28.5988 27.6029L33.1286 32.1488L32.1398 33.1273Z" fill="#8C8C8C" stroke="#8C8C8C" stroke-width="0.5"/>
</svg>
