<svg width="26" height="16" viewBox="0 0 26 16" fill="none" xmlns="http://www.w3.org/2000/svg">
<path d="M17.0946 3.97167C17.0946 3.96557 17.0946 3.95947 17.0946 3.95512C17.0946 3.66576 17.0607 3.38773 17.001 3.11581C16.6017 1.33435 14.9562 0 12.9901 0C11.0077 0 9.35275 1.35266 8.96839 3.15416C8.91593 3.40342 8.887 3.66315 8.88609 3.9281C8.88609 3.93681 8.88428 3.9464 8.88428 3.95512C8.88428 5.95969 10.4339 7.61305 12.4403 7.8719C12.6207 7.89454 12.8029 7.9111 12.9901 7.9111C13.1547 7.9111 13.3139 7.90066 13.4726 7.88149C15.5056 7.6505 17.0851 5.99107 17.0946 3.97167Z" fill="#333333"/>
<path d="M22.4273 9.38672L20.7791 11.5019L19.1308 9.38672C18.9378 9.45207 18.7538 9.53313 18.571 9.62115C19.8923 10.898 20.7126 12.6655 20.7126 14.6247V16H25.7228V13.9467C25.7228 11.8384 24.3455 10.0517 22.4273 9.38672Z" fill="#333333"/>
<path d="M18.4421 4.01082C18.3435 4.12237 18.254 4.23916 18.174 4.36379C17.8746 4.82136 17.6982 5.36085 17.6982 5.94043C17.6982 6.11648 17.7164 6.28731 17.7471 6.45291C17.8543 7.04208 18.1387 7.56849 18.5484 7.98249C18.7614 8.20038 19.0078 8.386 19.2809 8.53417C19.7245 8.77209 20.2341 8.90807 20.779 8.90807C22.4788 8.90807 23.8589 7.57983 23.8589 5.94043C23.8589 4.58516 22.9143 3.44257 21.6264 3.08785C21.517 3.05909 21.4048 3.03555 21.2922 3.01637C21.2009 3.00243 21.1096 2.99198 21.0169 2.985C20.9382 2.97977 20.86 2.97192 20.779 2.97192C19.8425 2.97192 19.0069 3.37633 18.4421 4.01082Z" fill="#333333"/>
<path d="M3.55024 9.38672L5.19936 11.5019L6.84758 9.38672C7.04065 9.45207 7.22469 9.53313 7.40738 9.62115C6.08474 10.898 5.26538 12.6655 5.26538 14.6247V16H0.255615V13.9467C0.255615 11.8384 1.63297 10.0517 3.55024 9.38672Z" fill="#333333"/>
<path d="M7.53591 4.01082C7.63448 4.12238 7.72493 4.23916 7.80541 4.3638C8.10385 4.82137 8.2793 5.36086 8.2793 5.94044C8.2793 6.11649 8.26121 6.28732 8.23047 6.45292C8.12421 7.04209 7.83977 7.5685 7.4301 7.9825C7.21666 8.20039 6.97068 8.38601 6.69755 8.53418C6.25397 8.77211 5.74435 8.90808 5.19947 8.90808C3.4997 8.90808 2.11963 7.57984 2.11963 5.94044C2.11963 4.58517 3.0647 3.44257 4.35253 3.08785C4.46105 3.05909 4.57274 3.03555 4.68804 3.01637C4.77577 3.00243 4.86892 2.99198 4.96162 2.985C5.0403 2.97977 5.11853 2.97192 5.19947 2.97192C6.13505 2.97192 6.97158 3.37633 7.53591 4.01082Z" fill="#333333"/>
<path d="M17.2306 9.69784C16.7961 9.33877 16.3118 9.03633 15.7922 8.79492C15.5941 8.70251 15.3939 8.61884 15.1849 8.54565L14.655 9.22895L13.4725 10.7463L12.9878 11.3677L12.4402 10.6644L11.3396 9.24898L10.7933 8.54565C10.5753 8.62321 10.3624 8.71298 10.1548 8.80973C9.63525 9.05287 9.15368 9.35705 8.71867 9.7205C8.47902 9.92008 8.25383 10.1388 8.04628 10.3707C7.02388 11.5037 6.39941 12.9915 6.39941 14.6247V16.0001H19.5788V14.6247C19.5788 12.9784 18.9453 11.4819 17.9071 10.3411C17.6982 10.1118 17.4721 9.89744 17.2306 9.69784Z" fill="#333333"/>
</svg>
