<svg width="332" height="61" viewBox="0 0 332 61" fill="none" xmlns="http://www.w3.org/2000/svg">
<rect width="157.583" height="61" rx="27.4635" fill="#FD890A"/>
<path fill-rule="evenodd" clip-rule="evenodd" d="M56.9041 30.5C56.906 29.7452 56.7574 28.9974 56.4669 28.3C56.1763 27.6027 55.7496 26.9696 55.2113 26.4373C54.6761 25.902 54.0394 25.4777 53.3381 25.1887C52.6368 24.8998 51.8849 24.752 51.1258 24.754H38.7657V36.246H51.1258C51.885 36.2481 52.6371 36.1003 53.3385 35.8114C54.0399 35.5224 54.6767 35.098 55.2121 34.5627C55.7502 34.0305 56.1768 33.3975 56.4672 32.7003C56.7576 32.003 56.9061 31.2554 56.9041 30.5008V30.5ZM62.6281 30.5C62.6281 36.8163 57.4782 41.9375 51.1258 41.9375H33.0416V19.0625H51.1258C57.4782 19.0625 62.6281 24.183 62.6281 30.5ZM122.442 29.7531C121.777 29.0902 120.986 28.5645 120.116 28.2061C119.246 27.8478 118.314 27.6638 117.372 27.6649V27.674H102.154C101.763 27.6736 101.388 27.519 101.112 27.244C100.835 26.9691 100.68 26.5963 100.679 26.2075C100.679 25.3992 101.34 24.7411 102.154 24.7411H120.191C120.946 24.7411 121.671 24.4426 122.205 23.9113C122.739 23.3801 123.039 22.6595 123.039 21.9082C123.039 21.1569 122.739 20.4364 122.205 19.9051C121.671 19.3738 120.946 19.0754 120.191 19.0754H102.154C101.187 19.0754 100.248 19.265 99.3608 19.6373C98.5091 19.9949 97.7354 20.5135 97.0825 21.1644C96.428 21.814 95.9065 22.5837 95.5468 23.4308C95.1725 24.3092 94.9804 25.2536 94.9818 26.2075C94.9818 27.169 95.1724 28.1032 95.5468 28.9843C95.9063 29.8315 96.4279 30.6012 97.0825 31.2507C97.7477 31.914 98.5381 32.4401 99.4085 32.7986C100.279 33.1571 101.212 33.341 102.154 33.3397H117.372V33.3306C118.184 33.3306 118.844 33.9872 118.844 34.794C118.844 35.1823 118.689 35.5547 118.413 35.8294C118.137 36.104 117.762 36.2585 117.372 36.2589H97.8305C97.075 36.2589 96.3504 36.5574 95.8161 37.0887C95.2819 37.6199 94.9818 38.3405 94.9818 39.0918C94.9818 39.8431 95.2819 40.5636 95.8161 41.0949C96.3504 41.6262 97.075 41.9246 97.8305 41.9246H117.372C118.314 41.9257 119.246 41.7418 120.116 41.3835C120.986 41.0251 121.777 40.4994 122.442 39.8364C123.096 39.187 123.617 38.4176 123.977 37.5707C124.351 36.6927 124.543 35.7485 124.542 34.7947C124.543 33.8583 124.358 32.9308 123.998 32.0656C123.637 31.2004 123.108 30.4145 122.442 29.7531ZM87.8471 19.0625H93.5445V39.0918C93.5444 39.652 93.3773 40.1997 93.0642 40.6655C92.7511 41.1313 92.3062 41.4944 91.7856 41.7087C91.2651 41.9231 90.6923 41.9791 90.1397 41.8697C89.5872 41.7604 89.0796 41.4905 88.6812 41.0943L69.682 27.4382V41.9375H63.9839V21.9082C63.9839 21.348 64.1511 20.8003 64.4642 20.3345C64.7772 19.8687 65.2222 19.5056 65.7427 19.2913C66.2633 19.0769 66.836 19.0209 67.3886 19.1303C67.9412 19.2396 68.4487 19.5095 68.8471 19.9057L87.8463 33.5618L87.8471 19.0625Z" fill="#F7F7F7"/>
<path d="M187.183 47.3542V32.8668C187.183 30.4168 186.953 28.6769 186.491 27.6471C186.029 26.6174 185.071 26.1025 183.615 26.1025C182.408 26.1025 181.431 26.4398 180.685 27.1145C179.94 27.7536 179.372 28.5881 178.981 29.6178V47.3542H172.057V20.723H177.436L178.235 24.2383H178.448C179.265 23.102 180.295 22.1078 181.538 21.2556C182.816 20.4034 184.449 19.9773 186.438 19.9773C188.142 19.9773 189.527 20.3324 190.592 21.0426C191.693 21.7172 192.545 22.8712 193.149 24.5046C193.965 23.1198 195.013 22.019 196.291 21.2023C197.57 20.3857 199.114 19.9773 200.925 19.9773C202.416 19.9773 203.677 20.1548 204.707 20.5099C205.772 20.865 206.624 21.4864 207.263 22.3741C207.938 23.2263 208.435 24.3803 208.755 25.8362C209.074 27.292 209.234 29.1385 209.234 31.3755V47.3542H202.31V32.3875C202.31 30.2925 202.079 28.7301 201.618 27.7004C201.191 26.6351 200.215 26.1025 198.688 26.1025C197.445 26.1025 196.451 26.4398 195.705 27.1145C194.995 27.7891 194.463 28.7124 194.108 29.8841V47.3542H187.183ZM235.689 45.064C234.624 45.9162 233.168 46.6441 231.321 47.2477C229.51 47.8159 227.575 48.0999 225.516 48.0999C221.219 48.0999 218.077 46.8571 216.088 44.3715C214.1 41.8505 213.106 38.4061 213.106 34.0386C213.106 29.3515 214.224 25.8362 216.461 23.4926C218.698 21.1491 221.841 19.9773 225.889 19.9773C227.238 19.9773 228.552 20.1548 229.83 20.5099C231.108 20.865 232.245 21.4509 233.239 22.2676C234.233 23.0843 235.032 24.185 235.636 25.5699C236.239 26.9547 236.541 28.6769 236.541 30.7363C236.541 31.482 236.488 32.2809 236.381 33.1332C236.31 33.9854 236.186 34.8731 236.008 35.7963H220.03C220.136 38.0333 220.704 39.72 221.734 40.8562C222.799 41.9925 224.504 42.5606 226.847 42.5606C228.303 42.5606 229.599 42.3476 230.736 41.9215C231.907 41.4599 232.795 40.9983 233.399 40.5366L235.689 45.064ZM225.782 25.5166C223.971 25.5166 222.622 26.067 221.734 27.1677C220.882 28.233 220.367 29.6711 220.19 31.482H230.096C230.238 29.5646 229.937 28.091 229.191 27.0612C228.481 26.0315 227.344 25.5166 225.782 25.5166ZM257.197 47.3542V32.2277C257.197 30.0617 256.877 28.4993 256.238 27.5406C255.635 26.5819 254.587 26.1025 253.096 26.1025C251.782 26.1025 250.663 26.4931 249.74 27.2743C248.853 28.0199 248.213 28.9609 247.823 30.0972V47.3542H240.899V20.723H246.385L247.184 24.2383H247.397C248.213 23.102 249.296 22.1078 250.646 21.2556C251.995 20.4034 253.735 19.9773 255.865 19.9773C257.179 19.9773 258.351 20.1548 259.381 20.5099C260.411 20.865 261.28 21.4509 261.991 22.2676C262.701 23.0843 263.233 24.2028 263.589 25.6231C263.944 27.008 264.121 28.7301 264.121 30.7896V47.3542H257.197ZM266.62 20.723H270.295V15.7163L277.22 13.7456V20.723H283.718V26.5819H277.22V36.8083C277.22 38.6547 277.397 39.9863 277.752 40.803C278.143 41.5841 278.853 41.9747 279.883 41.9747C280.593 41.9747 281.196 41.9037 281.694 41.7617C282.226 41.6196 282.812 41.4066 283.451 41.1225L284.676 46.4488C283.718 46.9104 282.599 47.301 281.321 47.6206C280.042 47.9401 278.746 48.0999 277.433 48.0999C274.983 48.0999 273.172 47.4785 272 46.2357C270.864 44.9574 270.295 42.8802 270.295 40.004V26.5819H266.62V20.723ZM285.888 34.0386C285.888 29.5291 286.989 26.067 289.19 23.6524C291.392 21.2023 294.481 19.9773 298.458 19.9773C300.588 19.9773 302.435 20.3146 303.997 20.9893C305.56 21.664 306.856 22.6227 307.885 23.8655C308.915 25.0728 309.679 26.5464 310.176 28.2863C310.708 30.0262 310.975 31.9436 310.975 34.0386C310.975 38.5482 309.874 42.028 307.672 44.4781C305.506 46.8926 302.435 48.0999 298.458 48.0999C296.327 48.0999 294.481 47.7626 292.919 47.0879C291.356 46.4133 290.043 45.4723 288.977 44.265C287.948 43.0222 287.166 41.5309 286.634 39.791C286.137 38.0511 285.888 36.1336 285.888 34.0386ZM293.025 34.0386C293.025 35.2104 293.132 36.2934 293.345 37.2876C293.558 38.2819 293.877 39.1518 294.304 39.8975C294.73 40.6432 295.28 41.2291 295.955 41.6552C296.665 42.0457 297.499 42.241 298.458 42.241C300.269 42.241 301.618 41.5841 302.506 40.2703C303.394 38.9565 303.838 36.8793 303.838 34.0386C303.838 31.5885 303.429 29.6178 302.612 28.1265C301.796 26.5996 300.411 25.8362 298.458 25.8362C296.754 25.8362 295.422 26.4753 294.463 27.7536C293.505 29.0319 293.025 31.1269 293.025 34.0386ZM329.942 27.221C328.841 26.8304 327.847 26.6351 326.959 26.6351C325.716 26.6351 324.669 26.9725 323.817 27.6471C323 28.2863 322.45 29.1207 322.166 30.1504V47.3542H315.242V20.723H320.621L321.42 24.2383H321.633C322.237 22.9245 323.053 21.9125 324.083 21.2023C325.113 20.4922 326.32 20.1371 327.705 20.1371C328.628 20.1371 329.676 20.3324 330.847 20.723L329.942 27.221Z" fill="#333333"/>
</svg>
